<svg width="12" height="16" viewBox="0 0 12 16" fill="none" xmlns="http://www.w3.org/2000/svg">
<path d="M0.726593 2.24719C0.746568 1.70786 0.936331 1.25842 1.29588 0.898874C1.65543 0.539324 2.10487 0.349561 2.6442 0.329586H9.35581C9.89513 0.349561 10.3446 0.539324 10.7041 0.898874C11.0637 1.25842 11.2534 1.70786 11.2734 2.24719V13.7528C11.2534 14.2921 11.0637 14.7416 10.7041 15.1011C10.3446 15.4607 9.89513 15.6504 9.35581 15.6704H2.6442C2.10487 15.6504 1.65543 15.4607 1.29588 15.1011C0.936331 14.7416 0.746568 14.2921 0.726593 13.7528V2.24719ZM6.9588 13.7528C6.9588 13.4732 6.86892 13.2434 6.68914 13.0637C6.50936 12.8839 6.27965 12.794 6 12.794C5.72035 12.794 5.49064 12.8839 5.31086 13.0637C5.13109 13.2434 5.0412 13.4732 5.0412 13.7528C5.0412 14.0325 5.13109 14.2622 5.31086 14.4419C5.49064 14.6217 5.72035 14.7116 6 14.7116C6.27965 14.7116 6.50936 14.6217 6.68914 14.4419C6.86892 14.2622 6.9588 14.0325 6.9588 13.7528ZM9.35581 2.24719H2.6442V11.8352H9.35581V2.24719Z" fill="black"/>
</svg>
