<svg width="16" height="16" viewBox="0 0 16 16" fill="none" xmlns="http://www.w3.org/2000/svg">
<path d="M0.32959 12.7939C0.32959 13.0736 0.419477 13.3033 0.599253 13.4831C0.779028 13.6628 1.00874 13.7527 1.28839 13.7527H2.93633C3.11611 14.1922 3.40574 14.5417 3.80525 14.8014C4.18477 15.0611 4.62422 15.1909 5.1236 15.1909C5.62297 15.1909 6.06242 15.0611 6.44195 14.8014C6.84145 14.5417 7.13109 14.1922 7.31086 13.7527H14.7116C14.9913 13.7527 15.221 13.6628 15.4008 13.4831C15.5805 13.3033 15.6704 13.0736 15.6704 12.7939C15.6704 12.5143 15.5805 12.2846 15.4008 12.1048C15.221 11.925 14.9913 11.8351 14.7116 11.8351H7.31086C7.13109 11.3957 6.84145 11.0461 6.44195 10.7864C6.06242 10.5267 5.62297 10.3969 5.1236 10.3969C4.62422 10.3969 4.18477 10.5267 3.80525 10.7864C3.40574 11.0461 3.11611 11.3957 2.93633 11.8351H1.28839C1.00874 11.8351 0.779028 11.925 0.599253 12.1048C0.419477 12.2846 0.32959 12.5143 0.32959 12.7939ZM4.1648 12.7939C4.1648 12.5143 4.25468 12.2846 4.43446 12.1048C4.61423 11.925 4.84395 11.8351 5.1236 11.8351C5.40325 11.8351 5.63296 11.925 5.81274 12.1048C5.99251 12.2846 6.0824 12.5143 6.0824 12.7939C6.0824 13.0736 5.99251 13.3033 5.81274 13.4831C5.63296 13.6628 5.40325 13.7527 5.1236 13.7527C4.84395 13.7527 4.61423 13.6628 4.43446 13.4831C4.25468 13.3033 4.1648 13.0736 4.1648 12.7939ZM9.9176 7.99991C9.9176 7.72026 10.0075 7.49054 10.1873 7.31077C10.367 7.13099 10.5968 7.04111 10.8764 7.04111C11.1561 7.04111 11.3858 7.13099 11.5655 7.31077C11.7453 7.49054 11.8352 7.72026 11.8352 7.99991C11.8352 8.27956 11.7453 8.50927 11.5655 8.68905C11.3858 8.86882 11.1561 8.95871 10.8764 8.95871C10.5968 8.95871 10.367 8.86882 10.1873 8.68905C10.0075 8.50927 9.9176 8.27956 9.9176 7.99991ZM10.8764 5.6029C10.377 5.6029 9.93758 5.73274 9.55805 5.99242C9.15855 6.25209 8.86892 6.60165 8.68914 7.04111H1.28839C1.00874 7.04111 0.779028 7.13099 0.599253 7.31077C0.419477 7.49054 0.32959 7.72026 0.32959 7.99991C0.32959 8.27956 0.419477 8.50927 0.599253 8.68905C0.779028 8.86882 1.00874 8.95871 1.28839 8.95871H8.68914C8.86892 9.39816 9.15855 9.74772 9.55805 10.0074C9.93758 10.2671 10.377 10.3969 10.8764 10.3969C11.3758 10.3969 11.8152 10.2671 12.1948 10.0074C12.5943 9.74772 12.8839 9.39816 13.0637 8.95871H14.7116C14.9913 8.95871 15.221 8.86882 15.4008 8.68905C15.5805 8.50927 15.6704 8.27956 15.6704 7.99991C15.6704 7.72026 15.5805 7.49054 15.4008 7.31077C15.221 7.13099 14.9913 7.04111 14.7116 7.04111H13.0637C12.8839 6.60165 12.5943 6.25209 12.1948 5.99242C11.8152 5.73274 11.3758 5.6029 10.8764 5.6029ZM6.0824 4.1647C5.80275 4.1647 5.57304 4.07481 5.39326 3.89504C5.21349 3.71526 5.1236 3.48555 5.1236 3.2059C5.1236 2.92625 5.21349 2.69654 5.39326 2.51676C5.57304 2.33699 5.80275 2.2471 6.0824 2.2471C6.36205 2.2471 6.59176 2.33699 6.77154 2.51676C6.95131 2.69654 7.0412 2.92625 7.0412 3.2059C7.0412 3.48555 6.95131 3.71526 6.77154 3.89504C6.59176 4.07481 6.36205 4.1647 6.0824 4.1647ZM8.26966 2.2471C8.08989 1.80765 7.80025 1.45808 7.40075 1.19841C7.02123 0.938733 6.58177 0.808895 6.0824 0.808895C5.58302 0.808895 5.14357 0.938733 4.76405 1.19841C4.36455 1.45808 4.07491 1.80765 3.89513 2.2471H1.28839C1.00874 2.2471 0.779028 2.33699 0.599253 2.51676C0.419477 2.69654 0.32959 2.92625 0.32959 3.2059C0.32959 3.48555 0.419477 3.71526 0.599253 3.89504C0.779028 4.07481 1.00874 4.1647 1.28839 4.1647H3.89513C4.07491 4.60415 4.36455 4.95371 4.76405 5.21339C5.14357 5.47307 5.58302 5.6029 6.0824 5.6029C6.58177 5.6029 7.02123 5.47307 7.40075 5.21339C7.80025 4.95371 8.08989 4.60415 8.26966 4.1647H14.7116C14.9913 4.1647 15.221 4.07481 15.4008 3.89504C15.5805 3.71526 15.6704 3.48555 15.6704 3.2059C15.6704 2.92625 15.5805 2.69654 15.4008 2.51676C15.221 2.33699 14.9913 2.2471 14.7116 2.2471H8.26966Z" fill="black"/>
</svg>
