<svg width="20" height="16" viewBox="0 0 20 16" fill="none" xmlns="http://www.w3.org/2000/svg">
<path d="M2.80899 9.9176C2.82897 9.61798 2.98877 9.45818 3.28839 9.4382C3.58802 9.45818 3.74782 9.61798 3.76779 9.9176C3.74782 10.2172 3.58802 10.377 3.28839 10.397C2.98877 10.377 2.82897 10.2172 2.80899 9.9176ZM5.20599 9.9176C5.18602 9.1985 4.86642 8.64919 4.24719 8.26966C3.60799 7.91011 2.96879 7.91011 2.32959 8.26966C1.71036 8.64919 1.39076 9.1985 1.37079 9.9176C1.39076 10.6367 1.71036 11.186 2.32959 11.5655C2.96879 11.9251 3.60799 11.9251 4.24719 11.5655C4.86642 11.186 5.18602 10.6367 5.20599 9.9176ZM2.32959 12.794C1.79026 12.814 1.34083 13.0037 0.981276 13.3633C0.621725 13.7228 0.431962 14.1723 0.411987 14.7116C0.411987 14.9913 0.501875 15.221 0.68165 15.4007C0.861425 15.5805 1.09114 15.6704 1.37079 15.6704H5.20599C5.48564 15.6704 5.71536 15.5805 5.89513 15.4007C6.07491 15.221 6.1648 14.9913 6.1648 14.7116C6.14482 14.1723 5.95506 13.7228 5.59551 13.3633C5.23596 13.0037 4.78652 12.814 4.24719 12.794H2.32959ZM9.5206 9.9176C9.54058 9.61798 9.70038 9.45818 10 9.4382C10.2996 9.45818 10.4594 9.61798 10.4794 9.9176C10.4594 10.2172 10.2996 10.377 10 10.397C9.70038 10.377 9.54058 10.2172 9.5206 9.9176ZM11.9176 9.9176C11.8976 9.1985 11.578 8.64919 10.9588 8.26966C10.3196 7.91011 9.6804 7.91011 9.0412 8.26966C8.42197 8.64919 8.10237 9.1985 8.0824 9.9176C8.10237 10.6367 8.42197 11.186 9.0412 11.5655C9.6804 11.9251 10.3196 11.9251 10.9588 11.5655C11.578 11.186 11.8976 10.6367 11.9176 9.9176ZM9.0412 12.794C8.50187 12.814 8.05244 13.0037 7.69289 13.3633C7.33334 13.7228 7.14357 14.1723 7.1236 14.7116C7.1236 14.9913 7.21349 15.221 7.39326 15.4007C7.57304 15.5805 7.80275 15.6704 8.0824 15.6704H11.9176C12.1973 15.6704 12.427 15.5805 12.6067 15.4007C12.7865 15.221 12.8764 14.9913 12.8764 14.7116C12.8564 14.1723 12.6667 13.7228 12.3071 13.3633C11.9476 13.0037 11.4981 12.814 10.9588 12.794H9.0412ZM16.7116 9.4382C17.0112 9.45818 17.171 9.61798 17.191 9.9176C17.171 10.2172 17.0112 10.377 16.7116 10.397C16.412 10.377 16.2522 10.2172 16.2322 9.9176C16.2522 9.61798 16.412 9.45818 16.7116 9.4382ZM16.7116 11.8352C17.4307 11.8152 17.98 11.4956 18.3596 10.8764C18.7191 10.2372 18.7191 9.598 18.3596 8.9588C17.98 8.33957 17.4307 8.01997 16.7116 8C15.9925 8.01997 15.4432 8.33957 15.0637 8.9588C14.7041 9.598 14.7041 10.2372 15.0637 10.8764C15.4432 11.4956 15.9925 11.8152 16.7116 11.8352ZM13.8352 14.7116C13.8352 14.9913 13.9251 15.221 14.1049 15.4007C14.2846 15.5805 14.5144 15.6704 14.794 15.6704H18.6292C18.9089 15.6704 19.1386 15.5805 19.3184 15.4007C19.4981 15.221 19.588 14.9913 19.588 14.7116C19.568 14.1723 19.3783 13.7228 19.0187 13.3633C18.6592 13.0037 18.2097 12.814 17.6704 12.794H15.7528C15.2135 12.814 14.764 13.0037 14.4045 13.3633C14.0449 13.7228 13.8552 14.1723 13.8352 14.7116ZM16.7116 1.76779H3.28839C2.98877 1.78776 2.82897 1.94756 2.80899 2.24719V7.07116C2.24969 7.17103 1.77029 7.40075 1.37079 7.7603V2.24719C1.39076 1.70786 1.58053 1.25842 1.94008 0.898874C2.29963 0.539324 2.74907 0.349561 3.28839 0.329586H16.7116C17.2509 0.349561 17.7004 0.539324 18.0599 0.898874C18.4195 1.25842 18.6092 1.70786 18.6292 2.24719V7.7603C18.2297 7.40075 17.7503 7.17103 17.191 7.07116V2.24719C17.171 1.94756 17.0112 1.78776 16.7116 1.76779Z" fill="white"/>
</svg>
