<svg width="18" height="16" viewBox="0 0 18 16" fill="none" xmlns="http://www.w3.org/2000/svg">
<path d="M9.86892 0.868879C9.68914 0.529304 9.39951 0.349528 9.00001 0.329553C8.62048 0.349528 8.33084 0.529304 8.13109 0.868879L6.21349 4.82394L1.89888 5.48311C1.51936 5.54304 1.26967 5.75277 1.14982 6.11232C1.02997 6.49185 1.10987 6.82144 1.38952 7.10109L4.50562 10.1872L3.75656 14.5618C3.71661 14.9413 3.84645 15.2509 4.14607 15.4906C4.46567 15.7103 4.80525 15.7303 5.1648 15.5505L9.00001 13.5131L12.8652 15.5505C13.2048 15.7303 13.5343 15.7103 13.8539 15.4906C14.1735 15.2509 14.3034 14.9413 14.2435 14.5618L13.5244 10.1872L16.6405 7.10109C16.9001 6.82144 16.98 6.49185 16.8802 6.11232C16.7403 5.75277 16.4807 5.54304 16.1011 5.48311L11.7865 4.82394L9.86892 0.868879Z" fill="#275BA8"/>
</svg>
