<svg width="29" height="21" viewBox="0 0 29 21" fill="none" xmlns="http://www.w3.org/2000/svg">
<path d="M4.62922 0.589853C4.13109 0.327681 3.6985 0.419441 3.33146 0.865135C3.04307 1.36326 3.13483 1.79585 3.60674 2.16289L5.49439 3.42131C5.99251 3.7097 6.4251 3.61794 6.79214 3.14603C7.08053 2.64791 6.98877 2.21532 6.51686 1.84828L4.62922 0.589853ZM25.3933 2.16289C25.839 1.79585 25.9307 1.36326 25.6685 0.865135C25.3015 0.419441 24.8689 0.327681 24.3708 0.589853L22.4832 1.84828C22.0375 2.21532 21.9457 2.64791 22.2079 3.14603C22.5749 3.59173 23.0075 3.68349 23.5056 3.42131L25.3933 2.16289ZM2.85955 6.72469C2.28277 6.77712 1.96817 7.09173 1.91573 7.66851C1.96817 8.24529 2.28277 8.55989 2.85955 8.61233H5.37641C5.95319 8.55989 6.26779 8.24529 6.32023 7.66851C6.26779 7.09173 5.95319 6.77712 5.37641 6.72469H2.85955ZM23.6236 6.72469C23.0468 6.77712 22.7322 7.09173 22.6798 7.66851C22.7322 8.24529 23.0468 8.55989 23.6236 8.61233H26.1405C26.7172 8.55989 27.0318 8.24529 27.0843 7.66851C27.0318 7.09173 26.7172 6.77712 26.1405 6.72469H23.6236ZM6.51686 13.4887C6.96255 13.1217 7.05431 12.6891 6.79214 12.191C6.4251 11.7453 5.99251 11.6535 5.49439 11.9157L3.60674 13.1741C3.16105 13.5412 3.06929 13.9737 3.33146 14.4719C3.6985 14.9176 4.13109 15.0093 4.62922 14.7472L6.51686 13.4887ZM23.5056 11.9157C23.0075 11.6535 22.5749 11.7453 22.2079 12.191C21.9195 12.6891 22.0112 13.1217 22.4832 13.4887L24.3708 14.7472C24.8689 15.0355 25.3015 14.9438 25.6685 14.4719C25.9569 13.9737 25.8652 13.5412 25.3933 13.1741L23.5056 11.9157ZM19.5337 7.3539C19.5075 8.42881 19.206 9.38573 18.6292 10.2247C18.4981 10.4344 18.3408 10.6704 18.1573 10.9326C17.6067 11.6404 17.0824 12.4138 16.5843 13.2528C16.191 14.0131 15.942 14.7734 15.8371 15.5337H17.764C17.8427 15.0618 18 14.603 18.236 14.1573C18.6292 13.4756 19.0749 12.8071 19.573 12.1517C19.7828 11.8633 19.9925 11.5749 20.2023 11.2865C20.9888 10.1591 21.3951 8.84828 21.4214 7.3539C21.3689 5.38761 20.6873 3.76214 19.3764 2.4775C18.0918 1.16663 16.4663 0.484985 14.5 0.43255C12.5337 0.484985 10.9082 1.16663 9.6236 2.4775C8.31274 3.76214 7.63109 5.38761 7.57865 7.3539C7.60487 8.84828 8.01124 10.1591 8.79776 11.2865C9.00749 11.5749 9.21723 11.8633 9.42697 12.1517C9.9251 12.8071 10.3708 13.4756 10.764 14.1573C11 14.603 11.1573 15.0618 11.236 15.5337H13.1629C13.0581 14.7734 12.809 14.0131 12.4157 13.2528C11.9438 12.4138 11.4326 11.6404 10.882 10.9326C10.6985 10.6704 10.5281 10.4344 10.3708 10.2247C9.79401 9.38573 9.49251 8.42881 9.4663 7.3539C9.49251 5.93817 9.97753 4.74529 10.9214 3.77525C11.8914 2.83143 13.0843 2.34641 14.5 2.32019C15.9157 2.34641 17.1086 2.83143 18.0787 3.77525C19.0225 4.74529 19.5075 5.93817 19.5337 7.3539ZM12.6124 7.3539C12.6386 6.82955 12.8221 6.38386 13.1629 6.01682C13.53 5.676 13.9757 5.49248 14.5 5.46626C14.8933 5.44004 15.103 5.2303 15.1292 4.83704C15.103 4.44379 14.8933 4.23405 14.5 4.20783C13.6086 4.23405 12.8614 4.53555 12.2584 5.11233C11.6817 5.71532 11.3802 6.46251 11.3539 7.3539C11.3802 7.74716 11.5899 7.95689 11.9831 7.98311C12.3764 7.95689 12.5861 7.74716 12.6124 7.3539ZM17.6461 17.4213V16.7921H11.3539V17.4213C11.3802 18.3127 11.6817 19.0599 12.2584 19.6629C12.8614 20.2397 13.6086 20.5412 14.5 20.5674C15.3914 20.5412 16.1386 20.2397 16.7416 19.6629C17.3184 19.0599 17.6199 18.3127 17.6461 17.4213Z" fill="#275BA8"/>
</svg>
