<svg width="14" height="16" viewBox="0 0 14 16" fill="none" xmlns="http://www.w3.org/2000/svg">
<path d="M4.1236 0.329586C4.56305 0.369536 4.80275 0.609237 4.8427 1.04869V2.24719H9.15731V1.04869C9.19726 0.609237 9.43696 0.369536 9.87641 0.329586C10.3159 0.369536 10.5556 0.609237 10.5955 1.04869V2.24719H11.794C12.3333 2.26716 12.7828 2.45693 13.1423 2.81648C13.5019 3.17603 13.6916 3.62547 13.7116 4.16479V4.64419V6.0824V13.7528C13.6916 14.2921 13.5019 14.7416 13.1423 15.1011C12.7828 15.4607 12.3333 15.6504 11.794 15.6704H2.20599C1.66667 15.6504 1.21723 15.4607 0.85768 15.1011C0.498129 14.7416 0.308366 14.2921 0.288391 13.7528V6.0824V4.64419V4.16479C0.308366 3.62547 0.498129 3.17603 0.85768 2.81648C1.21723 2.45693 1.66667 2.26716 2.20599 2.24719H3.4045V1.04869C3.44445 0.609237 3.68415 0.369536 4.1236 0.329586ZM12.2734 6.0824H1.72659V13.7528C1.74657 14.0524 1.90637 14.2122 2.20599 14.2322H11.794C12.0936 14.2122 12.2534 14.0524 12.2734 13.7528V6.0824ZM10.1461 9.22846L6.79026 12.5843C6.45069 12.8639 6.11111 12.8639 5.77154 12.5843L3.85393 10.6667C3.57428 10.3271 3.57428 9.98751 3.85393 9.64794C4.19351 9.36829 4.53309 9.36829 4.87266 9.64794L6.2809 11.0562L9.12734 8.20974C9.46692 7.93009 9.80649 7.93009 10.1461 8.20974C10.4257 8.54931 10.4257 8.88889 10.1461 9.22846Z" fill="#275BA8"/>
</svg>
