<svg width="16" height="16" viewBox="0 0 16 16" fill="none" xmlns="http://www.w3.org/2000/svg">
<path d="M14.2322 8C14.2322 9.13858 13.9526 10.1773 13.3933 11.1161C12.8539 12.0549 12.0949 12.814 11.1161 13.3933C10.1373 13.9526 9.09863 14.2322 8 14.2322C6.90138 14.2322 5.86267 13.9526 4.8839 13.3933C3.90512 12.814 3.14607 12.0549 2.60674 11.1161C2.04744 10.1773 1.76779 9.13858 1.76779 8C1.76779 6.86142 2.04744 5.82272 2.60674 4.88389C3.14607 3.94507 3.90512 3.18602 4.8839 2.60674C5.86267 2.04744 6.90138 1.76779 8 1.76779C9.09863 1.76779 10.1373 2.04744 11.1161 2.60674C12.0949 3.18602 12.8539 3.94507 13.3933 4.88389C13.9526 5.82272 14.2322 6.86142 14.2322 8ZM0.32959 8C0.349565 9.39825 0.68914 10.6767 1.34832 11.8352C2.02747 12.9938 2.96629 13.9326 4.1648 14.6517C5.38327 15.3308 6.66167 15.6704 8 15.6704C9.33833 15.6704 10.6167 15.3308 11.8352 14.6517C13.0337 13.9326 13.9725 12.9938 14.6517 11.8352C15.3109 10.6767 15.6504 9.39825 15.6704 8C15.6504 6.60175 15.3109 5.32334 14.6517 4.16479C13.9725 3.00624 13.0337 2.06741 11.8352 1.34831C10.6167 0.669162 9.33833 0.329586 8 0.329586C6.66167 0.329586 5.38327 0.669162 4.1648 1.34831C2.96629 2.06741 2.02747 3.00624 1.34832 4.16479C0.68914 5.32334 0.349565 6.60175 0.32959 8ZM7.2809 3.92509V8C7.2809 8.25967 7.39076 8.45942 7.61049 8.59925L10.4869 10.5169C10.8664 10.7366 11.196 10.6667 11.4757 10.3071C11.6954 9.92759 11.6255 9.598 11.2659 9.31835L8.7191 7.61049V3.92509C8.67915 3.48564 8.43945 3.24594 8 3.20599C7.56055 3.24594 7.32085 3.48564 7.2809 3.92509Z" fill="#275BA8"/>
</svg>
