<svg width="18" height="16" viewBox="0 0 18 16" fill="none" xmlns="http://www.w3.org/2000/svg">
<path d="M2.28839 1.28839C1.74907 1.30836 1.29963 1.49813 0.940077 1.85768C0.580526 2.21723 0.390764 2.66666 0.370789 3.20599V12.794C0.390764 13.3333 0.580526 13.7828 0.940077 14.1423C1.29963 14.5019 1.74907 14.6916 2.28839 14.7116H15.7116C16.2509 14.6916 16.7004 14.5019 17.0599 14.1423C17.4195 13.7828 17.6092 13.3333 17.6292 12.794V3.20599C17.6092 2.66666 17.4195 2.21723 17.0599 1.85768C16.7004 1.49813 16.2509 1.30836 15.7116 1.28839H2.28839ZM7.26217 5.51311L9.41948 9.82771C9.5593 10.2472 9.44944 10.5768 9.08989 10.8165C8.67041 10.9563 8.35081 10.8464 8.13109 10.4869L7.95131 10.1573H5.25468L5.07491 10.4869C4.85518 10.8464 4.53558 10.9463 4.11611 10.7865C3.73658 10.5668 3.63671 10.2472 3.81648 9.82771L5.97378 5.51311C6.11361 5.25343 6.32335 5.12359 6.603 5.12359C6.90262 5.12359 7.12235 5.25343 7.26217 5.51311ZM6.603 7.46067L5.97378 8.7191H7.23221L6.603 7.46067ZM12.1161 8C11.6767 8.03995 11.437 8.27965 11.397 8.7191C11.437 9.15855 11.6767 9.39825 12.1161 9.4382C12.5556 9.39825 12.7953 9.15855 12.8352 8.7191C12.7953 8.27965 12.5556 8.03995 12.1161 8ZM12.8352 6.68165V5.84269C12.8752 5.40324 13.1149 5.16354 13.5543 5.12359C13.9938 5.16354 14.2335 5.40324 14.2734 5.84269V8.7191V10.1573C14.2335 10.5968 13.9938 10.8365 13.5543 10.8764C13.3546 10.8764 13.1848 10.8065 13.0449 10.6667C12.7653 10.8065 12.4557 10.8764 12.1161 10.8764C11.4969 10.8564 10.9875 10.6467 10.588 10.2472C10.1885 9.84769 9.97878 9.33833 9.9588 8.7191C9.97878 8.09987 10.1885 7.59051 10.588 7.19101C10.9875 6.79151 11.4969 6.58177 12.1161 6.5618C12.3758 6.5618 12.6155 6.60175 12.8352 6.68165Z" fill="black"/>
</svg>
