<svg width="16" height="16" viewBox="0 0 16 16" fill="none" xmlns="http://www.w3.org/2000/svg">
<path d="M2.24719 2.24725C2.24719 1.9676 2.15731 1.73789 1.97753 1.55811C1.79775 1.37834 1.56804 1.28845 1.28839 1.28845C1.00874 1.28845 0.779028 1.37834 0.599253 1.55811C0.419477 1.73789 0.32959 1.9676 0.32959 2.24725V12.3147C0.349565 12.9938 0.579278 13.5631 1.01873 14.0225C1.47815 14.462 2.04744 14.6917 2.72659 14.7117H14.7116C14.9913 14.7117 15.221 14.6218 15.4008 14.442C15.5805 14.2622 15.6704 14.0325 15.6704 13.7529C15.6704 13.4732 15.5805 13.2435 15.4008 13.0637C15.221 12.884 14.9913 12.7941 14.7116 12.7941H2.72659C2.42697 12.7741 2.26717 12.6143 2.24719 12.3147V2.24725ZM14.4419 4.85399C14.6217 4.65424 14.7116 4.42453 14.7116 4.16485C14.7116 3.90518 14.6217 3.67546 14.4419 3.47571C14.2422 3.29594 14.0125 3.20605 13.7528 3.20605C13.4931 3.20605 13.2634 3.29594 13.0637 3.47571L9.9176 6.65174L8.20974 4.91392C8.00999 4.73414 7.78028 4.64425 7.5206 4.64425C7.26093 4.64425 7.03121 4.73414 6.83146 4.91392L3.47566 8.26972C3.29588 8.46947 3.20599 8.69918 3.20599 8.95886C3.20599 9.21854 3.29588 9.44825 3.47566 9.648C3.67541 9.82777 3.90512 9.91766 4.1648 9.91766C4.42447 9.91766 4.65418 9.82777 4.85393 9.648L7.5206 6.95137L9.22847 8.6892C9.42822 8.86897 9.65793 8.95886 9.9176 8.95886C10.1773 8.95886 10.407 8.86897 10.6067 8.6892L14.4419 4.85399Z" fill="black"/>
</svg>
