<svg width="15" height="15" viewBox="0 0 15 15" fill="none" xmlns="http://www.w3.org/2000/svg">
<path d="M10.8645 8.04673C10.3598 7.85981 9.92058 7.97196 9.54675 8.38318L8.62151 9.50467C7.3131 8.73832 6.27572 7.70094 5.50936 6.39252L6.63086 5.46729C7.04207 5.09346 7.15422 4.65421 6.96731 4.14953L5.62151 1.00935C5.50936 0.766356 5.33179 0.588786 5.0888 0.476637C4.8645 0.345796 4.62151 0.308413 4.35983 0.364487L1.21964 1.03738C0.658897 1.18692 0.359832 1.5514 0.322449 2.13084C0.34114 4.37383 0.864505 6.40187 1.89254 8.21495C2.92058 10.0467 4.3131 11.5327 6.07011 12.6729C7.82712 13.8131 9.79908 14.4766 11.986 14.6636C12.1168 14.6636 12.2477 14.6729 12.3785 14.6916C12.5467 14.6916 12.715 14.6916 12.8832 14.6916C13.4626 14.6542 13.8271 14.3551 13.9767 13.7944L14.6496 10.6542C14.7056 10.3925 14.6776 10.1495 14.5654 9.92523C14.4346 9.68224 14.2477 9.50467 14.0047 9.39252L10.8645 8.04673ZM12.8832 13.7944C10.715 13.7757 8.75235 13.243 6.99535 12.1963C5.23834 11.1682 3.84581 9.7757 2.81778 8.01869C1.77105 6.26168 1.23834 4.29907 1.21964 2.13084C1.21964 2.01869 1.27572 1.94393 1.38787 1.90654L4.52806 1.23365C4.64021 1.21495 4.72432 1.26168 4.78039 1.37383L6.12619 4.51402C6.16357 4.60748 6.14488 4.69159 6.07011 4.76636L4.92058 5.69159C4.58413 6.02804 4.51871 6.41122 4.72432 6.84112C5.56544 8.29907 6.71497 9.4486 8.17292 10.2897C8.60282 10.4953 8.986 10.4299 9.32245 10.0935L10.2477 8.94393C10.3224 8.86916 10.4066 8.85047 10.5 8.88785L13.6402 10.2336C13.7524 10.271 13.7991 10.3551 13.7804 10.486L13.1075 13.6262C13.0701 13.7383 12.9953 13.7944 12.8832 13.7944Z" fill="white"/>
</svg>
