<svg width="24" height="21" viewBox="0 0 24 21" fill="none" xmlns="http://www.w3.org/2000/svg">
<path d="M7.79214 2.98874L7.39888 4.20784H4.44944C3.74158 4.23405 3.15169 4.48312 2.67978 4.95503C2.20787 5.42694 1.9588 6.01682 1.93259 6.72469V16.7921C1.9588 17.5 2.20787 18.0899 2.67978 18.5618C3.15169 19.0337 3.74158 19.2827 4.44944 19.309H19.5506C20.2584 19.2827 20.8483 19.0337 21.3202 18.5618C21.7921 18.0899 22.0412 17.5 22.0674 16.7921V6.72469C22.0412 6.01682 21.7921 5.42694 21.3202 4.95503C20.8483 4.48312 20.2584 4.23405 19.5506 4.20784H16.6011L16.2079 2.98874C15.8933 2.176 15.2903 1.74342 14.3989 1.69098H9.60113C8.70974 1.74342 8.10674 2.176 7.79214 2.98874ZM12 7.98312C12.6817 7.98312 13.3109 8.15353 13.8876 8.49435C14.4644 8.83518 14.9232 9.29398 15.264 9.87076C15.6049 10.4738 15.7753 11.103 15.7753 11.7584C15.7753 12.4138 15.6049 13.043 15.264 13.646C14.9232 14.2228 14.4644 14.6816 13.8876 15.0224C13.3109 15.3633 12.6817 15.5337 12 15.5337C11.3184 15.5337 10.6891 15.3633 10.1124 15.0224C9.53558 14.6816 9.07678 14.2228 8.73596 13.646C8.39513 13.043 8.22472 12.4138 8.22472 11.7584C8.22472 11.103 8.39513 10.4738 8.73596 9.87076C9.07678 9.29398 9.53558 8.83518 10.1124 8.49435C10.6891 8.15353 11.3184 7.98312 12 7.98312Z" fill="#275BA8"/>
</svg>
