<svg width="18" height="16" viewBox="0 0 18 16" fill="none" xmlns="http://www.w3.org/2000/svg">
<path d="M9.4794 7.5206V0.838949C9.49938 0.539324 9.65918 0.369536 9.9588 0.329586C11.2172 0.349561 12.3458 0.659174 13.3446 1.25842C14.3633 1.8377 15.1623 2.6367 15.7416 3.65543C16.3408 4.65418 16.6504 5.78277 16.6704 7.0412C16.6305 7.34082 16.4607 7.50062 16.1611 7.5206H9.4794ZM1.32959 8.4794C1.36954 6.62172 1.96879 5.04369 3.12734 3.74532C4.26592 2.42696 5.73408 1.62796 7.53184 1.34831C7.83146 1.34831 8.00125 1.50811 8.0412 1.82771V8.9588L12.7453 13.6629C12.9451 13.9026 12.9251 14.1323 12.6854 14.3521C11.4869 15.211 10.0986 15.6504 8.5206 15.6704C7.18227 15.6504 5.97378 15.3208 4.89513 14.6816C3.81648 14.0424 2.95755 13.1835 2.31835 12.1049C1.67915 11.0262 1.34956 9.81773 1.32959 8.4794ZM17.0899 8.9588C17.4095 8.99875 17.5693 9.16854 17.5693 9.46816C17.3096 11.186 16.5705 12.6042 15.3521 13.7228C15.1323 13.9026 14.9226 13.9026 14.7228 13.7228L9.9588 8.9588H17.0899Z" fill="black"/>
</svg>
