<svg width="16" height="29" viewBox="0 0 16 29" fill="none" xmlns="http://www.w3.org/2000/svg">
<path d="M3.53125 19.9312L8.53125 14.9312C8.82292 14.5771 8.82292 14.2229 8.53125 13.8687L3.53125 8.86874C3.17708 8.57708 2.82292 8.57708 2.46875 8.86874C2.17708 9.22291 2.17708 9.57708 2.46875 9.93124L6.9375 14.4L2.46875 18.8687C2.17708 19.2229 2.17708 19.5771 2.46875 19.9312C2.82292 20.2229 3.17708 20.2229 3.53125 19.9312ZM9.53125 19.9312L14.5312 14.9312C14.8229 14.5771 14.8229 14.2229 14.5312 13.8687L9.53125 8.86874C9.17708 8.57708 8.82292 8.57708 8.46875 8.86874C8.17708 9.22291 8.17708 9.57708 8.46875 9.93124L12.9375 14.4L8.46875 18.8687C8.17708 19.2229 8.17708 19.5771 8.46875 19.9312C8.82292 20.2229 9.17708 20.2229 9.53125 19.9312Z" fill="white"/>
</svg>
