<svg width="15" height="15" viewBox="0 0 15 15" fill="none" xmlns="http://www.w3.org/2000/svg">
<path d="M14.4382 8.14607C14.6067 7.9588 14.691 7.74345 14.691 7.5C14.691 7.25656 14.6067 7.0412 14.4382 6.85394L10.8427 3.25843C10.6554 3.08989 10.4401 3.00562 10.1966 3.00562C9.95319 3.00562 9.73783 3.08989 9.55056 3.25843C9.38202 3.4457 9.29775 3.66105 9.29775 3.9045C9.29775 4.14794 9.38202 4.3633 9.55056 4.55056L11.6292 6.60113H1.20787C0.945695 6.60113 0.730339 6.6854 0.561799 6.85394C0.39326 7.02247 0.30899 7.23783 0.30899 7.5C0.30899 7.76218 0.39326 7.97753 0.561799 8.14607C0.730339 8.31461 0.945695 8.39888 1.20787 8.39888H11.6292L9.55056 10.4494C9.38202 10.6367 9.29775 10.8521 9.29775 11.0955C9.29775 11.339 9.38202 11.5543 9.55056 11.7416C9.73783 11.9101 9.95319 11.9944 10.1966 11.9944C10.4401 11.9944 10.6554 11.9101 10.8427 11.7416L14.4382 8.14607Z" fill="white"/>
</svg>
