<svg width="18" height="16" viewBox="0 0 18 16" fill="none" xmlns="http://www.w3.org/2000/svg">
<path d="M0.370789 2.72665C0.390764 2.32715 0.530589 1.98757 0.790264 1.70792C1.06991 1.44825 1.40949 1.30842 1.80899 1.28845H4.6854C5.0849 1.30842 5.42447 1.44825 5.70412 1.70792C5.9638 1.98757 6.10362 2.32715 6.1236 2.72665V3.20605H11.8764V2.72665C11.8964 2.32715 12.0362 1.98757 12.2959 1.70792C12.5755 1.44825 12.9151 1.30842 13.3146 1.28845H16.191C16.5905 1.30842 16.9301 1.44825 17.2097 1.70792C17.4694 1.98757 17.6092 2.32715 17.6292 2.72665V5.60306C17.6092 6.00256 17.4694 6.34213 17.2097 6.62178C16.9301 6.88146 16.5905 7.02128 16.191 7.04126H13.3146C12.9151 7.02128 12.5755 6.88146 12.2959 6.62178C12.0362 6.34213 11.8964 6.00256 11.8764 5.60306V5.12365H6.1236V5.60306C6.1236 5.66298 6.1236 5.71292 6.1236 5.75287L8.5206 8.95886H11.397C11.7965 8.97884 12.1361 9.11866 12.4157 9.37834C12.6754 9.65799 12.8152 9.99756 12.8352 10.3971V13.2735C12.8152 13.673 12.6754 14.0125 12.4157 14.2922C12.1361 14.5519 11.7965 14.6917 11.397 14.7117H8.5206C8.1211 14.6917 7.78153 14.5519 7.50187 14.2922C7.2422 14.0125 7.10237 13.673 7.0824 13.2735V10.3971C7.0824 10.3371 7.0824 10.2872 7.0824 10.2473L4.6854 7.04126H1.80899C1.40949 7.02128 1.06991 6.88146 0.790264 6.62178C0.530589 6.34213 0.390764 6.00256 0.370789 5.60306V2.72665Z" fill="black"/>
</svg>
