<svg width="16" height="16" viewBox="0 0 16 16" fill="none" xmlns="http://www.w3.org/2000/svg">
<path d="M6.29214 1.28845C5.93259 1.28845 5.603 1.39831 5.30337 1.61804C5.02372 1.81779 4.82397 2.08745 4.70412 2.42702L4.43446 3.20605H2.24719C1.70787 3.22603 1.25843 3.41579 0.898878 3.77534C0.539328 4.13489 0.349565 4.58433 0.32959 5.12365V12.7941C0.349565 13.3334 0.539328 13.7828 0.898878 14.1424C1.25843 14.5019 1.70787 14.6917 2.24719 14.7117H13.7528C14.2921 14.6917 14.7416 14.5019 15.1011 14.1424C15.4607 13.7828 15.6504 13.3334 15.6704 12.7941V5.12365C15.6504 4.58433 15.4607 4.13489 15.1011 3.77534C14.7416 3.41579 14.2921 3.22603 13.7528 3.20605H11.5655L11.2959 2.42702C11.176 2.08745 10.9763 1.81779 10.6966 1.61804C10.397 1.39831 10.0674 1.28845 9.70787 1.28845H6.29214ZM6.0824 2.90643C6.12235 2.78658 6.19226 2.72665 6.29214 2.72665H9.70787C9.80774 2.72665 9.88764 2.78658 9.94757 2.90643L10.367 4.16485C10.4869 4.46448 10.7066 4.62428 11.0262 4.64425H13.7528C14.0524 4.66423 14.2122 4.82403 14.2322 5.12365V12.7941C14.2122 13.0937 14.0524 13.2535 13.7528 13.2735H2.24719C1.94757 13.2535 1.78777 13.0937 1.76779 12.7941V5.12365C1.78777 4.82403 1.94757 4.66423 2.24719 4.64425H4.97378C5.29339 4.62428 5.5231 4.46448 5.66292 4.16485L6.0824 2.90643ZM8 12.3147C8.59925 12.3147 9.15855 12.1649 9.6779 11.8652C10.1973 11.5656 10.6067 11.1561 10.9064 10.6368C11.206 10.1174 11.3558 9.55811 11.3558 8.95886C11.3558 8.35961 11.206 7.80031 10.9064 7.28096C10.6067 6.76161 10.1973 6.35212 9.6779 6.05249C9.15855 5.75287 8.59925 5.60306 8 5.60306C7.40075 5.60306 6.84145 5.75287 6.3221 6.05249C5.80275 6.35212 5.39326 6.76161 5.09363 7.28096C4.79401 7.80031 4.6442 8.35961 4.6442 8.95886C4.6442 9.55811 4.79401 10.1174 5.09363 10.6368C5.39326 11.1561 5.80275 11.5656 6.3221 11.8652C6.84145 12.1649 7.40075 12.3147 8 12.3147ZM6.0824 8.95886C6.10237 8.23976 6.42197 7.69045 7.0412 7.31092C7.6804 6.95137 8.3196 6.95137 8.9588 7.31092C9.57803 7.69045 9.89763 8.23976 9.9176 8.95886C9.89763 9.67796 9.57803 10.2273 8.9588 10.6068C8.3196 10.9664 7.6804 10.9664 7.0412 10.6068C6.42197 10.2273 6.10237 9.67796 6.0824 8.95886Z" fill="white"/>
</svg>
