<svg width="29" height="21" viewBox="0 0 29 21" fill="none" xmlns="http://www.w3.org/2000/svg">
<path d="M13.2416 2.9494C13.2416 3.49997 13.0843 3.98499 12.7697 4.40446L13.9494 6.84266C14.3165 6.76401 14.7097 6.72469 15.1292 6.72469C16.5712 6.7509 17.8034 7.2097 18.8259 8.10109L22.0506 5.74154C22.0506 5.66289 22.0506 5.57113 22.0506 5.46626C22.0768 4.75839 22.3259 4.1685 22.7978 3.6966C23.2697 3.22469 23.8596 2.97562 24.5674 2.9494C25.2753 2.97562 25.8652 3.22469 26.3371 3.6966C26.809 4.1685 27.0581 4.75839 27.0843 5.46626C27.0581 6.17412 26.809 6.76401 26.3371 7.23592C25.8652 7.70783 25.2753 7.95689 24.5674 7.98311C24.2004 7.98311 23.8596 7.91757 23.545 7.78648L20.3202 10.146C20.6348 10.8277 20.7921 11.5749 20.7921 12.3876C20.7921 13.0168 20.7004 13.6067 20.5169 14.1573L23.3483 15.8483C23.7154 15.6385 24.1217 15.5337 24.5674 15.5337C25.2753 15.5599 25.8652 15.809 26.3371 16.2809C26.809 16.7528 27.0581 17.3427 27.0843 18.0505C27.0581 18.7584 26.809 19.3483 26.3371 19.8202C25.8652 20.2921 25.2753 20.5412 24.5674 20.5674C23.8596 20.5412 23.2697 20.2921 22.7978 19.8202C22.3259 19.3483 22.0768 18.7584 22.0506 18.0505V18.0112L19.2191 16.3202C18.1442 17.4213 16.7809 17.9981 15.1292 18.0505C13.7659 18.0243 12.5862 17.6048 11.5899 16.7921C10.5674 15.9794 9.912 14.9307 9.62361 13.646H6.59552C6.12361 14.4326 5.40263 14.852 4.4326 14.9045C3.72473 14.8782 3.13484 14.6292 2.66293 14.1573C2.19102 13.6854 1.94196 13.0955 1.91574 12.3876C1.94196 11.6797 2.19102 11.0899 2.66293 10.6179C3.13484 10.146 3.72473 9.89697 4.4326 9.87075C5.40263 9.92319 6.12361 10.3427 6.59552 11.1292H9.62361C9.93821 9.7921 10.6199 8.71719 11.6686 7.90446L10.4888 5.46626C9.83334 5.38761 9.29589 5.11233 8.87642 4.64042C8.45694 4.19472 8.23409 3.63105 8.20788 2.9494C8.23409 2.24154 8.48316 1.65165 8.95507 1.17974C9.42698 0.70783 10.0169 0.458767 10.7247 0.43255C11.4326 0.458767 12.0225 0.70783 12.4944 1.17974C12.9663 1.65165 13.2154 2.24154 13.2416 2.9494ZM15.1292 14.2752C15.8371 14.249 16.3877 13.9344 16.7809 13.3314C17.0955 12.7022 17.0955 12.073 16.7809 11.4438C16.3877 10.8408 15.8371 10.5262 15.1292 10.5C14.4214 10.5262 13.8708 10.8408 13.4775 11.4438C13.1629 12.073 13.1629 12.7022 13.4775 13.3314C13.8708 13.9344 14.4214 14.249 15.1292 14.2752Z" fill="#275BA8"/>
</svg>
