<svg width="29" height="21" viewBox="0 0 29 21" fill="none" xmlns="http://www.w3.org/2000/svg">
<path d="M17.3708 0.471876C17.03 0.393225 16.7023 0.43255 16.3877 0.589853C16.0993 0.747158 15.9026 0.996222 15.7978 1.33705L10.7641 18.955C10.6854 19.2958 10.7247 19.6236 10.882 19.9382C11.0393 20.2266 11.2884 20.4232 11.6292 20.5281C11.97 20.6067 12.2978 20.5674 12.6124 20.4101C12.9008 20.2528 13.0974 20.0037 13.2023 19.6629L18.236 2.04491C18.3146 1.70409 18.2753 1.37637 18.118 1.06176C17.9607 0.773375 17.7116 0.576746 17.3708 0.471876ZM20.5169 5.19098C20.2809 5.45315 20.1629 5.75465 20.1629 6.09547C20.1629 6.4363 20.2809 6.73779 20.5169 6.99997L24.0562 10.5L20.5169 14C20.2809 14.2621 20.1629 14.5636 20.1629 14.9045C20.1629 15.2453 20.2809 15.5468 20.5169 15.809C20.779 16.0449 21.0805 16.1629 21.4214 16.1629C21.7622 16.1629 22.0637 16.0449 22.3259 15.809L26.7303 11.4045C26.9663 11.1423 27.0843 10.8408 27.0843 10.5C27.0843 10.1591 26.9663 9.85764 26.7303 9.59547L22.3259 5.19098C22.0637 4.95502 21.7622 4.83704 21.4214 4.83704C21.0805 4.83704 20.779 4.95502 20.5169 5.19098ZM8.48316 5.19098C8.22098 4.95502 7.91949 4.83704 7.57866 4.83704C7.23784 4.83704 6.93634 4.95502 6.67417 5.19098L2.26967 9.59547C2.03372 9.85764 1.91574 10.1591 1.91574 10.5C1.91574 10.8408 2.03372 11.1423 2.26967 11.4045L6.67417 15.809C6.93634 16.0449 7.23784 16.1629 7.57866 16.1629C7.91949 16.1629 8.22098 16.0449 8.48316 15.809C8.71911 15.5468 8.83709 15.2453 8.83709 14.9045C8.83709 14.5636 8.71911 14.2621 8.48316 14L4.94383 10.5L8.48316 6.99997C8.71911 6.73779 8.83709 6.4363 8.83709 6.09547C8.83709 5.75465 8.71911 5.45315 8.48316 5.19098Z" fill="#275BA8"/>
</svg>
