<svg width="16" height="16" viewBox="0 0 16 16" fill="none" xmlns="http://www.w3.org/2000/svg">
<path d="M2.69663 0.479399C2.35705 0.259673 2.03745 0.279649 1.73783 0.539324L0.539325 1.73783C0.279649 2.03745 0.259674 2.35705 0.4794 2.69663L2.8764 5.81273C3.01623 5.99251 3.20599 6.0824 3.44569 6.0824H5.06367L8.32959 9.34831C8.10986 9.78776 8.03995 10.2572 8.11985 10.7566C8.17977 11.236 8.38951 11.6654 8.74906 12.0449L12.1049 15.4007C12.3046 15.5805 12.5343 15.6704 12.794 15.6704C13.0537 15.6704 13.2834 15.5805 13.4831 15.4007L15.4007 13.4831C15.5805 13.2834 15.6704 13.0537 15.6704 12.794C15.6704 12.5343 15.5805 12.3046 15.4007 12.1049L12.0449 8.74906C11.6654 8.38951 11.236 8.17977 10.7566 8.11985C10.2572 8.03995 9.78776 8.10986 9.34831 8.32959L6.0824 5.06367V3.44569C6.0824 3.20599 5.99251 3.01623 5.81273 2.8764L2.69663 0.479399ZM0.928838 12.1948C0.529337 12.5943 0.329587 13.0737 0.329587 13.633C0.349562 14.2122 0.549312 14.6916 0.928838 15.0712C1.30836 15.4507 1.78776 15.6504 2.36704 15.6704C2.92634 15.6704 3.40574 15.4707 3.80524 15.0712L7.34082 11.5356C7.10112 10.8964 7.06117 10.2472 7.22097 9.58801L5.3633 7.73034L0.928838 12.1948ZM15.6704 4.64419C15.6704 4.32459 15.6404 4.02497 15.5805 3.74532C15.5206 3.56554 15.4207 3.45568 15.2809 3.41573C15.1211 3.39575 14.9813 3.44569 14.8614 3.56554L12.9438 5.45318C12.8439 5.55306 12.7241 5.60299 12.5843 5.60299H10.8764C10.5768 5.58302 10.417 5.42322 10.397 5.12359V3.41573C10.397 3.2759 10.4469 3.15605 10.5468 3.05618L12.4644 1.13857C12.5843 1.01872 12.6242 0.8789 12.5843 0.719099C12.5443 0.579274 12.4444 0.479399 12.2846 0.419474C11.985 0.359549 11.6754 0.329586 11.3558 0.329586C10.1373 0.369536 9.1186 0.789012 8.29962 1.58801C7.50062 2.40699 7.08115 3.42572 7.0412 4.64419V4.67416L9.58801 7.22097C10.1473 7.08115 10.6966 7.08115 11.236 7.22097C11.7953 7.38077 12.2846 7.67041 12.7041 8.08989L13.1835 8.56929C13.9226 8.20974 14.5218 7.6804 14.9813 6.98127C15.4207 6.30212 15.6504 5.52309 15.6704 4.64419ZM2.00749 13.2734C2.04744 12.834 2.28714 12.5943 2.72659 12.5543C3.16604 12.5943 3.40574 12.834 3.44569 13.2734C3.40574 13.7129 3.16604 13.9526 2.72659 13.9925C2.28714 13.9526 2.04744 13.7129 2.00749 13.2734Z" fill="black"/>
</svg>
