<svg width="16" height="16" viewBox="0 0 16 16" fill="none" xmlns="http://www.w3.org/2000/svg">
<path d="M11.176 6.86142C11.2959 7.22097 11.3558 7.6005 11.3558 8C11.3358 8.9588 11.0062 9.74781 10.367 10.367C9.74782 11.0062 8.9588 11.3358 8 11.3558C7.0412 11.3358 6.25219 11.0062 5.63296 10.367C4.99376 9.74781 4.66417 8.9588 4.6442 8C4.66417 7.0412 4.99376 6.25218 5.63296 5.63296C6.25219 4.99376 7.0412 4.66417 8 4.64419C8.3995 4.64419 8.77903 4.71411 9.13858 4.85393L9.28839 4.70412L9.04869 3.32584C8.70912 3.24594 8.35955 3.20599 8 3.20599C6.6417 3.24594 5.51311 3.71535 4.61423 4.61423C3.71536 5.51311 3.24594 6.6417 3.20599 8C3.24594 9.3583 3.71536 10.4869 4.61423 11.3858C5.51311 12.2846 6.6417 12.7541 8 12.794C9.3583 12.7541 10.4869 12.2846 11.3858 11.3858C12.2846 10.4869 12.7541 9.3583 12.794 8C12.794 7.64045 12.7541 7.29088 12.6742 6.95131L11.2959 6.74157L11.176 6.86142ZM14.0824 6.62172C14.1823 7.06117 14.2322 7.5206 14.2322 8C14.1923 9.7578 13.583 11.226 12.4045 12.4045C11.226 13.583 9.7578 14.1923 8 14.2322C6.2422 14.1923 4.77403 13.583 3.59551 12.4045C2.41698 11.226 1.80774 9.7578 1.76779 8C1.80774 6.2422 2.41698 4.77403 3.59551 3.5955C4.77403 2.41698 6.2422 1.80774 8 1.76779C8.4794 1.76779 8.93883 1.81773 9.37828 1.9176L10.5468 0.749062C9.74782 0.469411 8.89888 0.329586 8 0.329586C6.5618 0.349561 5.27341 0.699124 4.13483 1.37827C2.97628 2.05743 2.05743 2.97628 1.37828 4.13483C0.699128 5.27341 0.349565 6.5618 0.32959 8C0.349565 9.4382 0.699128 10.7266 1.37828 11.8652C2.05743 13.0237 2.97628 13.9426 4.13483 14.6217C5.27341 15.3009 6.5618 15.6504 8 15.6704C9.4382 15.6504 10.7266 15.3009 11.8652 14.6217C13.0237 13.9426 13.9426 13.0237 14.6217 11.8652C15.3009 10.7266 15.6504 9.4382 15.6704 8C15.6704 7.10112 15.5306 6.26217 15.2509 5.48314L14.0824 6.62172ZM11.2659 5.75281L12.794 5.99251C13.1136 6.05243 13.3933 5.96254 13.633 5.72284L15.1611 4.19475C15.2809 4.0749 15.3209 3.93508 15.2809 3.77528C15.2609 3.61548 15.1611 3.49563 14.9813 3.41573L13.2734 2.72659L12.5843 1.01872C12.5044 0.838949 12.3845 0.739074 12.2247 0.719099C12.0649 0.679149 11.9251 0.719099 11.8052 0.838949L10.2772 2.36704C10.0375 2.60674 9.94757 2.88639 10.0075 3.20599L10.2472 4.73408L7.49064 7.49063C7.21099 7.83021 7.21099 8.16979 7.49064 8.50936C7.83021 8.78901 8.16979 8.78901 8.50937 8.50936L11.2659 5.75281Z" fill="white"/>
</svg>
