<svg width="12" height="16" viewBox="0 0 12 16" fill="none" xmlns="http://www.w3.org/2000/svg">
<path d="M10.3146 6.08257C10.2747 4.8641 9.85518 3.84537 9.05618 3.02639C8.23721 2.22739 7.21848 1.80792 6 1.76797C4.78152 1.80792 3.7628 2.22739 2.94382 3.02639C2.14482 3.84537 1.72534 4.8641 1.68539 6.08257C1.68539 6.4621 1.83521 7.03139 2.13483 7.79044C2.47441 8.54949 2.90387 9.34849 3.42322 10.1874C3.86267 10.8866 4.30212 11.5557 4.74157 12.1949C5.201 12.8341 5.62048 13.3934 6 13.8728C6.37953 13.3934 6.799 12.8341 7.25843 12.1949C7.71785 11.5557 8.1573 10.8866 8.57678 10.1874C9.09613 9.34849 9.52559 8.54949 9.86517 7.79044C10.1648 7.03139 10.3146 6.4621 10.3146 6.08257ZM11.7528 6.08257C11.7129 6.98145 11.3933 8.02015 10.794 9.19868C10.1748 10.3772 9.47566 11.5158 8.69663 12.6144C7.9176 13.733 7.25843 14.6219 6.7191 15.2811C6.51935 15.5208 6.27965 15.6406 6 15.6406C5.72035 15.6406 5.48065 15.5208 5.2809 15.2811C4.74157 14.6219 4.0824 13.733 3.30337 12.6144C2.52435 11.5158 1.82522 10.3772 1.20599 9.19868C0.606743 8.02015 0.287142 6.98145 0.247192 6.08257C0.287142 4.44462 0.846443 3.08632 1.9251 2.00767C3.00375 0.929014 4.36205 0.369714 6 0.329763C7.63795 0.369714 8.99626 0.929014 10.0749 2.00767C11.1536 3.08632 11.7129 4.44462 11.7528 6.08257ZM6.9588 6.08257C6.9588 5.80292 6.86892 5.57321 6.68914 5.39343C6.50936 5.21366 6.27965 5.12377 6 5.12377C5.72035 5.12377 5.49064 5.21366 5.31086 5.39343C5.13109 5.57321 5.0412 5.80292 5.0412 6.08257C5.0412 6.36222 5.13109 6.59194 5.31086 6.77171C5.49064 6.95149 5.72035 7.04137 6 7.04137C6.27965 7.04137 6.50936 6.95149 6.68914 6.77171C6.86892 6.59194 6.9588 6.36222 6.9588 6.08257ZM3.603 6.08257C3.62297 5.1837 4.02247 4.49456 4.8015 4.01516C5.6005 3.57571 6.3995 3.57571 7.1985 4.01516C7.97753 4.49456 8.37703 5.1837 8.39701 6.08257C8.37703 6.98145 7.97753 7.67059 7.1985 8.14999C6.3995 8.58944 5.6005 8.58944 4.8015 8.14999C4.02247 7.67059 3.62297 6.98145 3.603 6.08257Z" fill="white"/>
</svg>
