<svg width="16" height="16" viewBox="0 0 16 16" fill="none" xmlns="http://www.w3.org/2000/svg">
<path d="M11.5955 8.56929C11.0562 8.36954 10.5868 8.48939 10.1873 8.92884L9.1985 10.1273C7.80025 9.30836 6.69164 8.19975 5.87266 6.8015L7.07116 5.81273C7.51061 5.41323 7.63046 4.94382 7.43071 4.40449L5.99251 1.04869C5.87266 0.789012 5.6829 0.599249 5.42322 0.479399C5.18352 0.339574 4.92385 0.299623 4.6442 0.359549L1.28839 1.07865C0.68914 1.23845 0.36954 1.62796 0.32959 2.24719C0.349565 4.58427 0.888891 6.71161 1.94757 8.62921C2.98627 10.5468 4.4045 12.1248 6.20225 13.3633C8 14.5818 10.0375 15.3308 12.3146 15.6105C12.6142 15.6305 12.9139 15.6504 13.2135 15.6704C13.3933 15.6704 13.573 15.6704 13.7528 15.6704C14.372 15.6305 14.7615 15.3208 14.9214 14.7416L15.6405 11.3858C15.7004 11.0861 15.6704 10.8165 15.5506 10.5768C15.4107 10.3171 15.211 10.1273 14.9513 10.0075L11.5955 8.56929ZM13.573 14.2322C11.3758 14.1723 9.39825 13.613 7.64045 12.5543C5.88265 11.5156 4.4844 10.1174 3.44569 8.35955C2.38702 6.60175 1.82772 4.6342 1.76779 2.45693L4.73408 1.79775L6.02247 4.82397L4.94382 5.69288C4.68415 5.93258 4.52435 6.22222 4.46442 6.5618C4.4045 6.8814 4.45443 7.201 4.61423 7.5206C5.57304 9.13858 6.86142 10.427 8.4794 11.3858C8.799 11.5655 9.12859 11.6155 9.46817 11.5356C9.78777 11.4757 10.0674 11.3159 10.3071 11.0562L11.206 9.97753L14.2022 11.2659L13.573 14.2322Z" fill="white"/>
</svg>
