<svg width="18" height="16" viewBox="0 0 18 16" fill="none" xmlns="http://www.w3.org/2000/svg">
<path d="M0.370789 4.16492C0.390764 3.62559 0.580526 3.17615 0.940077 2.8166C1.29963 2.45705 1.74907 2.26729 2.28839 2.24731H9.9588C10.4981 2.26729 10.9476 2.45705 11.3071 2.8166C11.6667 3.17615 11.8564 3.62559 11.8764 4.16492V11.8353C11.8564 12.3747 11.6667 12.8241 11.3071 13.1836C10.9476 13.5432 10.4981 13.733 9.9588 13.7529H2.28839C1.74907 13.733 1.29963 13.5432 0.940077 13.1836C0.580526 12.8241 0.390764 12.3747 0.370789 11.8353V4.16492ZM17.1199 3.32596C17.4395 3.50574 17.6092 3.78539 17.6292 4.16492V11.8353C17.6092 12.2149 17.4395 12.4945 17.1199 12.6743C16.7803 12.8541 16.4507 12.8441 16.1311 12.6443L13.2547 10.7267L12.8352 10.4271V9.91772V6.08252V5.57315L13.2547 5.27353L16.1311 3.35593C16.4507 3.17615 16.7803 3.16616 17.1199 3.32596Z" fill="black"/>
</svg>
