<svg width="18" height="16" viewBox="0 0 18 16" fill="none" xmlns="http://www.w3.org/2000/svg">
<path d="M10.5281 11.3258C11.387 11.186 12.0662 10.7566 12.5655 10.0375L17.3895 2.54681C17.5893 2.24719 17.6692 1.92759 17.6292 1.58801C17.5693 1.24844 17.4195 0.958799 17.1798 0.719099C16.9001 0.479399 16.5905 0.349561 16.2509 0.329586C15.9313 0.309611 15.6217 0.409486 15.3221 0.629211L8.22098 5.93258C7.4819 6.51186 7.10237 7.27091 7.0824 8.20974L10.5281 11.3258ZM9.9588 12.1049L6.48315 8.9588C5.5643 9.01872 4.79526 9.3583 4.17603 9.97753C3.57678 10.6167 3.26717 11.3958 3.24719 12.3146C3.24719 12.4345 3.25718 12.5543 3.27716 12.6742C3.29713 12.9338 3.22722 13.1735 3.06742 13.3933C2.90762 13.613 2.69788 13.7328 2.4382 13.7528H2.28839C2.00874 13.7528 1.77903 13.8427 1.59925 14.0225C1.41948 14.2022 1.32959 14.432 1.32959 14.7116C1.32959 14.9913 1.41948 15.221 1.59925 15.4007C1.77903 15.5805 2.00874 15.6704 2.28839 15.6704H6.603C7.5618 15.6504 8.35081 15.3208 8.97004 14.6816C9.60924 14.0624 9.93883 13.2734 9.9588 12.3146C9.9588 12.2747 9.9588 12.2347 9.9588 12.1948C9.9588 12.1548 9.9588 12.1248 9.9588 12.1049Z" fill="black"/>
</svg>
