<svg width="14" height="16" viewBox="0 0 14 16" fill="none" xmlns="http://www.w3.org/2000/svg">
<path d="M4.1236 0.329586C4.40325 0.329586 4.63296 0.419474 4.81274 0.599249C4.99251 0.779024 5.0824 1.00874 5.0824 1.28839V2.24719H8.91761V1.28839C8.91761 1.00874 9.00749 0.779024 9.18727 0.599249C9.36704 0.419474 9.59676 0.329586 9.87641 0.329586C10.1561 0.329586 10.3858 0.419474 10.5655 0.599249C10.7453 0.779024 10.8352 1.00874 10.8352 1.28839V2.24719H12.2734C12.6729 2.26716 13.0125 2.40699 13.2921 2.66667C13.5518 2.94631 13.6916 3.28589 13.7116 3.68539V5.12359H0.288391V3.68539C0.308366 3.28589 0.448191 2.94631 0.707867 2.66667C0.987517 2.40699 1.32709 2.26716 1.72659 2.24719H3.1648V1.28839C3.1648 1.00874 3.25468 0.779024 3.43446 0.599249C3.61423 0.419474 3.84395 0.329586 4.1236 0.329586ZM0.288391 6.0824H13.7116V14.2322C13.6916 14.6317 13.5518 14.9713 13.2921 15.2509C13.0125 15.5106 12.6729 15.6504 12.2734 15.6704H1.72659C1.32709 15.6504 0.987517 15.5106 0.707867 15.2509C0.448191 14.9713 0.308366 14.6317 0.288391 14.2322V6.0824ZM2.20599 8.4794V9.4382C2.22597 9.73783 2.38577 9.89763 2.6854 9.9176H3.6442C3.94382 9.89763 4.10362 9.73783 4.1236 9.4382V8.4794C4.10362 8.17977 3.94382 8.01997 3.6442 8H2.6854C2.38577 8.01997 2.22597 8.17977 2.20599 8.4794ZM6.0412 8.4794V9.4382C6.06118 9.73783 6.22098 9.89763 6.5206 9.9176H7.4794C7.77903 9.89763 7.93883 9.73783 7.9588 9.4382V8.4794C7.93883 8.17977 7.77903 8.01997 7.4794 8H6.5206C6.22098 8.01997 6.06118 8.17977 6.0412 8.4794ZM10.3558 8C10.0562 8.01997 9.89638 8.17977 9.87641 8.4794V9.4382C9.89638 9.73783 10.0562 9.89763 10.3558 9.9176H11.3146C11.6142 9.89763 11.774 9.73783 11.794 9.4382V8.4794C11.774 8.17977 11.6142 8.01997 11.3146 8H10.3558ZM2.20599 12.3146V13.2734C2.22597 13.573 2.38577 13.7328 2.6854 13.7528H3.6442C3.94382 13.7328 4.10362 13.573 4.1236 13.2734V12.3146C4.10362 12.015 3.94382 11.8552 3.6442 11.8352H2.6854C2.38577 11.8552 2.22597 12.015 2.20599 12.3146ZM6.5206 11.8352C6.22098 11.8552 6.06118 12.015 6.0412 12.3146V13.2734C6.06118 13.573 6.22098 13.7328 6.5206 13.7528H7.4794C7.77903 13.7328 7.93883 13.573 7.9588 13.2734V12.3146C7.93883 12.015 7.77903 11.8552 7.4794 11.8352H6.5206ZM9.87641 12.3146V13.2734C9.89638 13.573 10.0562 13.7328 10.3558 13.7528H11.3146C11.6142 13.7328 11.774 13.573 11.794 13.2734V12.3146C11.774 12.015 11.6142 11.8552 11.3146 11.8352H10.3558C10.0562 11.8552 9.89638 12.015 9.87641 12.3146Z" fill="black"/>
</svg>
