<svg width="18" height="16" viewBox="0 0 18 16" fill="none" xmlns="http://www.w3.org/2000/svg">
<path d="M5.1648 2.72641H15.7116C16.0112 2.74638 16.171 2.90618 16.191 3.20581V9.91742C16.171 10.217 16.0112 10.3768 15.7116 10.3968H15.0824L11.9963 5.6927C11.8564 5.47297 11.6567 5.36311 11.397 5.36311C11.1373 5.36311 10.9376 5.47297 10.7978 5.6927L9.2397 8.0897L8.85019 7.58034C8.71036 7.38059 8.5206 7.28071 8.2809 7.28071C8.0412 7.28071 7.85144 7.38059 7.71161 7.58034L5.6442 10.3968H5.1648C4.86517 10.3768 4.70537 10.217 4.6854 9.91742V3.20581C4.70537 2.90618 4.86517 2.74638 5.1648 2.72641ZM3.24719 3.20581V9.91742C3.26717 10.4567 3.45693 10.9062 3.81648 11.2657C4.17603 11.6253 4.62547 11.815 5.1648 11.835H15.7116C16.2509 11.815 16.7004 11.6253 17.0599 11.2657C17.4195 10.9062 17.6092 10.4567 17.6292 9.91742V3.20581C17.6092 2.66648 17.4195 2.21704 17.0599 1.85749C16.7004 1.49794 16.2509 1.30818 15.7116 1.2882H5.1648C4.62547 1.30818 4.17603 1.49794 3.81648 1.85749C3.45693 2.21704 3.26717 2.66648 3.24719 3.20581ZM1.80899 3.92491C1.76904 3.48546 1.52934 3.24576 1.08989 3.20581C0.650439 3.24576 0.410739 3.48546 0.370789 3.92491V10.6365C0.390764 11.7951 0.790264 12.7539 1.56929 13.5129C2.32834 14.292 3.28714 14.6915 4.44569 14.7114H14.0337C14.4732 14.6715 14.7129 14.4318 14.7528 13.9923C14.7129 13.5529 14.4732 13.3132 14.0337 13.2732H4.44569C3.70662 13.2532 3.08739 12.9936 2.58802 12.4942C2.08864 11.9948 1.82897 11.3756 1.80899 10.6365V3.92491ZM8.0412 4.64401C8.0412 4.36436 7.95131 4.13465 7.77154 3.95487C7.59176 3.77509 7.36205 3.68521 7.0824 3.68521C6.80275 3.68521 6.57304 3.77509 6.39326 3.95487C6.21349 4.13465 6.1236 4.36436 6.1236 4.64401C6.1236 4.92366 6.21349 5.15337 6.39326 5.33315C6.57304 5.51292 6.80275 5.60281 7.0824 5.60281C7.36205 5.60281 7.59176 5.51292 7.77154 5.33315C7.95131 5.15337 8.0412 4.92366 8.0412 4.64401Z" fill="#275BA8"/>
</svg>
