<svg width="24" height="21" viewBox="0 0 24 21" fill="none" xmlns="http://www.w3.org/2000/svg">
<path d="M12 6.09547C12.7079 6.06925 13.2584 5.75465 13.6517 5.15165C13.9663 4.52244 13.9663 3.89322 13.6517 3.26401C13.2584 2.66101 12.7079 2.34641 12 2.32019C11.2921 2.34641 10.7416 2.66101 10.3483 3.26401C10.0337 3.89322 10.0337 4.52244 10.3483 5.15165C10.7416 5.75465 11.2921 6.06925 12 6.09547ZM12 0.43255C12.6817 0.43255 13.3109 0.602962 13.8876 0.943787C14.4644 1.28461 14.9232 1.74341 15.264 2.32019C15.6049 2.92319 15.7753 3.5524 15.7753 4.20783C15.7753 4.86326 15.6049 5.49248 15.264 6.09547C14.9232 6.67225 14.4644 7.13105 13.8876 7.47188C13.3109 7.8127 12.6817 7.98311 12 7.98311C11.3184 7.98311 10.6891 7.8127 10.1124 7.47188C9.53558 7.13105 9.07678 6.67225 8.73596 6.09547C8.39513 5.49248 8.22472 4.86326 8.22472 4.20783C8.22472 3.5524 8.39513 2.92319 8.73596 2.32019C9.07678 1.74341 9.53558 1.28461 10.1124 0.943787C10.6891 0.602962 11.3184 0.43255 12 0.43255ZM10.8989 11.4045C10.8727 11.3782 10.8071 11.3389 10.7022 11.2865C10.4925 11.1554 10.0861 10.9981 9.48315 10.8146C8.40824 10.3951 6.5206 10.0936 3.82023 9.91008V16.8314C5.49813 16.9625 6.94008 17.1591 8.14607 17.4213C9.35206 17.7097 10.3221 17.985 11.0562 18.2472V11.5224L10.8989 11.4045ZM12.9438 11.5224V18.2472C13.6779 17.985 14.6479 17.7097 15.8539 17.4213C17.0599 17.1591 18.5019 16.9625 20.1798 16.8314V9.91008C17.4794 10.0936 15.5918 10.3951 14.5169 10.8146C13.9401 10.9981 13.5337 11.1554 13.2978 11.2865C13.1929 11.3389 13.1273 11.3782 13.1011 11.4045L12.9438 11.5224ZM3.19101 8.02244C6.44195 8.17974 8.73596 8.50746 10.073 9.00558C11.4101 9.50371 12.0524 9.7921 12 9.87075C11.9476 9.7921 12.5899 9.50371 13.927 9.00558C15.264 8.50746 17.5581 8.17974 20.809 8.02244C21.176 7.99622 21.4775 8.10109 21.7135 8.33704C21.9494 8.573 22.0674 8.8745 22.0674 9.24154V17.4213C22.0674 17.7884 21.9494 18.0899 21.7135 18.3258C21.4775 18.5618 21.176 18.6929 20.809 18.7191C18.5543 18.8502 16.7322 19.1123 15.3427 19.5056C13.9532 19.8988 13.0356 20.2135 12.5899 20.4494C12.4064 20.5281 12.2097 20.5674 12 20.5674C11.7903 20.5674 11.5936 20.5281 11.4101 20.4494C10.9644 20.2135 10.0468 19.8988 8.65731 19.5056C7.29401 19.1123 5.47191 18.8502 3.19101 18.7191C2.85019 18.6929 2.5618 18.5618 2.32585 18.3258C2.08989 18.0899 1.9588 17.7884 1.93259 17.4213V9.24154C1.9588 8.8745 2.08989 8.573 2.32585 8.33704C2.5618 8.10109 2.85019 7.99622 3.19101 8.02244Z" fill="#275BA8"/>
</svg>
