<svg width="18" height="16" viewBox="0 0 18 16" fill="none" xmlns="http://www.w3.org/2000/svg">
<path d="M15.1423 6.0824H10.9176V1.85768C12.0162 2.0774 12.9351 2.56679 13.6742 3.32584C14.4332 4.06492 14.9226 4.98377 15.1423 6.0824ZM10.9176 7.5206H16.1611C16.4607 7.50062 16.6305 7.34082 16.6704 7.0412C16.6504 5.78277 16.3408 4.65418 15.7416 3.65543C15.1623 2.6367 14.3633 1.8377 13.3446 1.25842C12.3458 0.659174 11.2172 0.349561 9.9588 0.329586C9.65918 0.369536 9.49938 0.539324 9.4794 0.838949V6.0824V7.5206H10.9176ZM7.02247 9.97753L10.7978 13.7528C10.0986 14.0724 9.33958 14.2322 8.5206 14.2322C6.88265 14.1923 5.52435 13.633 4.44569 12.5543C3.36704 11.4757 2.80774 10.1174 2.76779 8.4794C2.78777 7.201 3.14732 6.0824 3.84644 5.12359C4.54557 4.16479 5.46442 3.47565 6.603 3.05618V8.9588C6.603 9.3583 6.74282 9.69788 7.02247 9.97753ZM7.53184 1.34831C5.73408 1.62796 4.26592 2.42696 3.12734 3.74532C1.96879 5.04369 1.36954 6.62172 1.32959 8.4794C1.34956 9.81773 1.67915 11.0262 2.31835 12.1049C2.95755 13.1835 3.81648 14.0424 4.89513 14.6816C5.97378 15.3208 7.18227 15.6504 8.5206 15.6704C10.0986 15.6504 11.4869 15.211 12.6854 14.3521C12.9251 14.1323 12.9451 13.9026 12.7453 13.6629L8.0412 8.9588V1.82771C8.00125 1.50811 7.83146 1.34831 7.53184 1.34831ZM17.0899 8.9588H9.9588L14.7228 13.7228C14.9226 13.9026 15.1323 13.9026 15.3521 13.7228C16.5705 12.6042 17.3096 11.186 17.5693 9.46816C17.5693 9.16854 17.4095 8.99875 17.0899 8.9588Z" fill="#275BA8"/>
</svg>
