<svg width="18" height="16" viewBox="0 0 18 16" fill="none" xmlns="http://www.w3.org/2000/svg">
<path d="M9.00001 11.5955L9.80899 12.0149L12.3558 13.3932L11.8464 10.4569L11.6966 9.61794L12.3258 8.98873L14.4232 6.92131L11.5468 6.50184L10.6779 6.35203L10.2884 5.573L9.00001 2.93629V11.5955ZM14.2435 14.5618C14.3034 14.9413 14.1735 15.2509 13.8539 15.4906C13.5343 15.7103 13.1948 15.7303 12.8352 15.5505L9.00001 13.5131L5.1648 15.5505C4.80525 15.7303 4.46567 15.7103 4.14607 15.4906C3.84645 15.2509 3.71661 14.9413 3.75656 14.5618L4.50562 10.1872L1.38952 7.10109C1.10987 6.82144 1.02997 6.49185 1.14982 6.11232C1.26967 5.75277 1.51936 5.54304 1.89888 5.48311L6.21349 4.82394L8.13109 0.868879C8.33084 0.529304 8.62048 0.349528 9.00001 0.329553C9.39951 0.349528 9.68914 0.529304 9.86892 0.868879L11.7865 4.82394L16.1011 5.48311C16.4807 5.54304 16.7403 5.75277 16.8802 6.11232C16.98 6.49185 16.9001 6.82144 16.6405 7.10109L13.5244 10.1872L14.2435 14.5618Z" fill="#275BA8"/>
</svg>
