<svg width="16" height="16" viewBox="0 0 16 16" fill="none" xmlns="http://www.w3.org/2000/svg">
<path d="M4.6442 0.808987C4.62422 0.509361 4.46442 0.349561 4.1648 0.329586C3.86517 0.349561 3.70537 0.509361 3.6854 0.808987V1.28839H3.20599C2.90637 1.30836 2.74657 1.46816 2.72659 1.76779C2.74657 2.06741 2.90637 2.22721 3.20599 2.24719H3.6854V3.20599H2.12734C1.76779 3.24594 1.56804 3.44569 1.52809 3.80524C1.52809 3.88514 1.53808 3.96504 1.55805 4.04494L2.54682 6.5618H2.48689C2.04744 6.60175 1.80774 6.84145 1.76779 7.2809C1.80774 7.72035 2.04744 7.96005 2.48689 8H2.60674L2.12734 11.8352H6.20225L5.72285 8H5.8427C6.28215 7.96005 6.52185 7.72035 6.5618 7.2809C6.52185 6.84145 6.28215 6.60175 5.8427 6.5618H5.78277L6.77154 4.04494C6.79151 3.96504 6.8015 3.88514 6.8015 3.80524C6.76155 3.44569 6.5618 3.24594 6.20225 3.20599H4.6442V2.24719H5.1236C5.42322 2.22721 5.58302 2.06741 5.603 1.76779C5.58302 1.46816 5.42322 1.30836 5.1236 1.28839H4.6442V0.808987ZM1.76779 12.794L0.479403 14.5318C0.379527 14.6517 0.32959 14.7915 0.32959 14.9513C0.36954 15.3908 0.60924 15.6305 1.04869 15.6704H7.2809C7.72035 15.6305 7.96005 15.3908 8 14.9513C8 14.7915 7.95006 14.6517 7.85019 14.5318L6.5618 12.794H1.76779ZM10.397 12.794L9.10862 14.5318C9.00874 14.6517 8.9588 14.7915 8.9588 14.9513C8.99875 15.3908 9.23845 15.6305 9.6779 15.6704H14.9513C15.3908 15.6305 15.6305 15.3908 15.6704 14.9513C15.6704 14.7915 15.6205 14.6517 15.5206 14.5318L14.2322 12.794H10.397ZM9.4382 6.5618V8.11985C9.4382 8.35955 9.5181 8.56929 9.6779 8.74906L10.4869 9.6779L10.427 11.8352H14.2022L14.0824 9.6779L14.9513 8.74906C15.1111 8.56929 15.191 8.35955 15.191 8.11985V6.5618C15.171 6.26217 15.0112 6.10237 14.7116 6.0824H14.2322C13.9326 6.10237 13.7728 6.26217 13.7528 6.5618V7.0412H13.0337V6.5618C13.0137 6.26217 12.8539 6.10237 12.5543 6.0824H12.0749C11.7753 6.10237 11.6155 6.26217 11.5955 6.5618V7.0412H10.8764V6.5618C10.8564 6.26217 10.6966 6.10237 10.397 6.0824H9.9176C9.61798 6.10237 9.45818 6.26217 9.4382 6.5618ZM11.8352 9.4382C11.8552 9.13858 12.015 8.97877 12.3146 8.9588C12.6142 8.97877 12.774 9.13858 12.794 9.4382V10.397H11.8352V9.4382Z" fill="black"/>
</svg>
