<svg width="22" height="23" viewBox="0 0 22 23" fill="none" xmlns="http://www.w3.org/2000/svg">
<path d="M1.375 11.5215C1.40365 9.7168 1.84766 8.09831 2.70703 6.66602C3.53776 5.20508 4.68359 4.05924 6.14453 3.22852C7.57682 2.36914 9.19531 1.92513 11 1.89648C12.8047 1.92513 14.4232 2.36914 15.8555 3.22852C17.3164 4.05924 18.4622 5.20508 19.293 6.66602C20.1523 8.09831 20.5964 9.7168 20.625 11.5215V17.709C20.5964 18.2819 20.3958 18.7689 20.0234 19.1699C19.6224 19.571 19.1354 19.7715 18.5625 19.7715H14.9961C14.6523 18.9121 14.0078 18.4538 13.0625 18.3965H10.3125C9.73958 18.4251 9.2526 18.6257 8.85156 18.998C8.47917 19.3991 8.27865 19.8861 8.25 20.459C8.27865 21.0319 8.47917 21.5189 8.85156 21.9199C9.2526 22.2923 9.73958 22.4928 10.3125 22.5215H13.0625C14.0078 22.4642 14.6523 22.0059 14.9961 21.1465H18.5625C19.5365 21.1178 20.3529 20.7884 21.0117 20.1582C21.6419 19.4993 21.9714 18.6829 22 17.709V11.5215C21.9714 9.45898 21.4701 7.61133 20.4961 5.97852C19.5221 4.31706 18.2044 2.99935 16.543 2.02539C14.9102 1.05143 13.0625 0.550131 11 0.521484C8.9375 0.550131 7.08984 1.05143 5.45703 2.02539C3.79557 2.99935 2.47786 4.31706 1.50391 5.97852C0.529948 7.61133 0.0286458 9.45898 0 11.5215V13.584C0.0286458 14.0137 0.257812 14.2428 0.6875 14.2715C1.11719 14.2428 1.34635 14.0137 1.375 13.584V11.5215ZM13.75 20.459C13.7214 20.8887 13.4922 21.1178 13.0625 21.1465H10.3125C9.88281 21.1178 9.65365 20.8887 9.625 20.459C9.65365 20.0293 9.88281 19.8001 10.3125 19.7715H13.0625C13.4922 19.8001 13.7214 20.0293 13.75 20.459ZM6.1875 10.1465H6.875V15.6465H6.1875C5.61458 15.6178 5.1276 15.4173 4.72656 15.0449C4.35417 14.6439 4.15365 14.1569 4.125 13.584V12.209C4.15365 11.6361 4.35417 11.1491 4.72656 10.748C5.1276 10.3757 5.61458 10.1751 6.1875 10.1465ZM2.75 12.209V13.584C2.77865 14.5579 3.10807 15.3743 3.73828 16.0332C4.39714 16.6634 5.21354 16.9928 6.1875 17.0215H6.875C7.27604 17.0215 7.60547 16.8926 7.86328 16.6348C8.12109 16.377 8.25 16.0475 8.25 15.6465V10.1465C8.25 9.74544 8.12109 9.41602 7.86328 9.1582C7.60547 8.90039 7.27604 8.77148 6.875 8.77148H6.1875C5.21354 8.80013 4.39714 9.12956 3.73828 9.75977C3.10807 10.4186 2.77865 11.235 2.75 12.209ZM15.125 10.1465H15.8125C16.3854 10.1751 16.8724 10.3757 17.2734 10.748C17.6458 11.1491 17.8464 11.6361 17.875 12.209V13.584C17.8464 14.1569 17.6458 14.6439 17.2734 15.0449C16.8724 15.4173 16.3854 15.6178 15.8125 15.6465H15.125V10.1465ZM15.8125 8.77148H15.125C14.724 8.77148 14.3945 8.90039 14.1367 9.1582C13.8789 9.41602 13.75 9.74544 13.75 10.1465V15.6465C13.75 16.0475 13.8789 16.377 14.1367 16.6348C14.3945 16.8926 14.724 17.0215 15.125 17.0215H15.8125C16.7865 16.9928 17.6029 16.6634 18.2617 16.0332C18.8919 15.3743 19.2214 14.5579 19.25 13.584V12.209C19.2214 11.235 18.8919 10.4186 18.2617 9.75977C17.6029 9.12956 16.7865 8.80013 15.8125 8.77148Z" fill="white"/>
</svg>
