<svg width="18" height="16" viewBox="0 0 18 16" fill="none" xmlns="http://www.w3.org/2000/svg">
<path d="M0.370789 1.04869C0.410739 0.609237 0.650439 0.369536 1.08989 0.329586H2.46817C3.14732 0.369536 3.64669 0.689137 3.96629 1.28839H16.2809C16.6804 1.30836 17 1.46816 17.2397 1.76779C17.4594 2.06741 17.5293 2.40699 17.4494 2.78652L16.221 7.37078C16.0812 7.85019 15.8215 8.22971 15.4419 8.50936C15.0624 8.80899 14.623 8.9588 14.1236 8.9588H5.49438L5.6442 9.82771C5.74407 10.1873 5.98377 10.377 6.3633 10.397H14.9925C15.432 10.437 15.6717 10.6767 15.7116 11.1161C15.6717 11.5556 15.432 11.7953 14.9925 11.8352H6.3633C5.82397 11.8352 5.36455 11.6654 4.98502 11.3258C4.58552 11.0062 4.33583 10.5968 4.23596 10.0974L2.6779 1.97753C2.65793 1.8377 2.58802 1.76779 2.46817 1.76779H1.08989C0.650439 1.72784 0.410739 1.48814 0.370789 1.04869ZM4.20599 14.2322C4.22597 13.6929 4.46567 13.2734 4.9251 12.9738C5.4045 12.7341 5.8839 12.7341 6.3633 12.9738C6.82272 13.2734 7.06242 13.6929 7.0824 14.2322C7.06242 14.7715 6.82272 15.191 6.3633 15.4906C5.8839 15.7303 5.4045 15.7303 4.9251 15.4906C4.46567 15.191 4.22597 14.7715 4.20599 14.2322ZM14.2734 12.794C14.8127 12.814 15.2322 13.0537 15.5318 13.5131C15.7715 13.9925 15.7715 14.4719 15.5318 14.9513C15.2322 15.4107 14.8127 15.6504 14.2734 15.6704C13.7341 15.6504 13.3146 15.4107 13.015 14.9513C12.7753 14.4719 12.7753 13.9925 13.015 13.5131C13.3146 13.0537 13.7341 12.814 14.2734 12.794Z" fill="black"/>
</svg>
