<svg width="14" height="16" viewBox="0 0 14 16" fill="none" xmlns="http://www.w3.org/2000/svg">
<path d="M11.794 2.72665C12.0936 2.74662 12.2534 2.90643 12.2734 3.20605V12.7941C12.2534 13.0937 12.0936 13.2535 11.794 13.2735H2.20599C1.90637 13.2535 1.74657 13.0937 1.72659 12.7941V3.20605C1.74657 2.90643 1.90637 2.74662 2.20599 2.72665H11.794ZM2.20599 1.28845C1.66667 1.30842 1.21723 1.49819 0.85768 1.85774C0.498129 2.21729 0.308366 2.66673 0.288391 3.20605V12.7941C0.308366 13.3334 0.498129 13.7828 0.85768 14.1424C1.21723 14.5019 1.66667 14.6917 2.20599 14.7117H11.794C12.3333 14.6917 12.7828 14.5019 13.1423 14.1424C13.5019 13.7828 13.6916 13.3334 13.7116 12.7941V3.20605C13.6916 2.66673 13.5019 2.21729 13.1423 1.85774C12.7828 1.49819 12.3333 1.30842 11.794 1.28845H2.20599ZM4.603 4.16485C4.16355 4.2048 3.92385 4.4445 3.8839 4.88395V5.84276H3.4045C2.96505 5.88271 2.72535 6.12241 2.6854 6.56186C2.72535 7.00131 2.96505 7.24101 3.4045 7.28096H3.8839V11.1162C3.92385 11.5556 4.16355 11.7953 4.603 11.8353C5.04245 11.7953 5.28215 11.5556 5.3221 11.1162V7.28096H5.8015C6.24095 7.24101 6.48065 7.00131 6.5206 6.56186C6.48065 6.12241 6.24095 5.88271 5.8015 5.84276H5.3221V4.88395C5.28215 4.4445 5.04245 4.2048 4.603 4.16485ZM10.1161 4.88395C10.0762 4.4445 9.83646 4.2048 9.39701 4.16485C8.95755 4.2048 8.71785 4.4445 8.67791 4.88395V8.71916H8.1985C7.75905 8.75911 7.51935 8.99881 7.4794 9.43826C7.51935 9.87771 7.75905 10.1174 8.1985 10.1574H8.67791V11.1162C8.71785 11.5556 8.95755 11.7953 9.39701 11.8353C9.83646 11.7953 10.0762 11.5556 10.1161 11.1162V10.1574H10.5955C11.035 10.1174 11.2747 9.87771 11.3146 9.43826C11.2747 8.99881 11.035 8.75911 10.5955 8.71916H10.1161V4.88395Z" fill="#275BA8"/>
</svg>
