<svg width="16" height="16" viewBox="0 0 16 16" fill="none" xmlns="http://www.w3.org/2000/svg">
<path d="M0.32959 8C0.349565 6.60175 0.68914 5.32334 1.34832 4.16479C2.02747 3.00624 2.96629 2.06741 4.1648 1.34831C5.38327 0.669162 6.66167 0.329586 8 0.329586C9.33833 0.329586 10.6167 0.669162 11.8352 1.34831C13.0337 2.06741 13.9725 3.00624 14.6517 4.16479C15.3109 5.32334 15.6504 6.60175 15.6704 8C15.6504 9.39825 15.3109 10.6767 14.6517 11.8352C13.9725 12.9938 13.0337 13.9326 11.8352 14.6517C10.6167 15.3308 9.33833 15.6704 8 15.6704C6.66167 15.6704 5.38327 15.3308 4.1648 14.6517C2.96629 13.9326 2.02747 12.9938 1.34832 11.8352C0.68914 10.6767 0.349565 9.39825 0.32959 8ZM8.9588 3.20599C8.9588 2.92634 8.86892 2.69663 8.68914 2.51685C8.50937 2.33708 8.27965 2.24719 8 2.24719C7.72035 2.24719 7.49064 2.33708 7.31086 2.51685C7.13109 2.69663 7.0412 2.92634 7.0412 3.20599C7.0412 3.48564 7.13109 3.71535 7.31086 3.89513C7.49064 4.0749 7.72035 4.16479 8 4.16479C8.27965 4.16479 8.50937 4.0749 8.68914 3.89513C8.86892 3.71535 8.9588 3.48564 8.9588 3.20599ZM8 12.794C8.53933 12.774 8.98877 12.5843 9.34832 12.2247C9.70787 11.8652 9.89763 11.4157 9.9176 10.8764C9.89763 10.3371 9.71785 9.88764 9.37828 9.52809L11.2959 5.18352C11.4357 4.76404 11.3159 4.44444 10.9363 4.22472C10.5169 4.08489 10.1973 4.20474 9.97753 4.58427L8.05993 8.9588C8.03995 8.9588 8.02996 8.9588 8.02996 8.9588C8.00999 8.9588 8 8.9588 8 8.9588C7.46068 8.97877 7.01124 9.16854 6.65169 9.52809C6.29214 9.88764 6.10237 10.3371 6.0824 10.8764C6.10237 11.4157 6.29214 11.8652 6.65169 12.2247C7.01124 12.5843 7.46068 12.774 8 12.794ZM5.603 4.64419C5.603 4.36454 5.51311 4.13483 5.33334 3.95505C5.15356 3.77528 4.92385 3.68539 4.6442 3.68539C4.36455 3.68539 4.13483 3.77528 3.95506 3.95505C3.77528 4.13483 3.6854 4.36454 3.6854 4.64419C3.6854 4.92384 3.77528 5.15356 3.95506 5.33333C4.13483 5.51311 4.36455 5.60299 4.6442 5.60299C4.92385 5.60299 5.15356 5.51311 5.33334 5.33333C5.51311 5.15356 5.603 4.92384 5.603 4.64419ZM3.20599 8.9588C3.48564 8.9588 3.71536 8.86891 3.89513 8.68914C4.07491 8.50936 4.1648 8.27965 4.1648 8C4.1648 7.72035 4.07491 7.49063 3.89513 7.31086C3.71536 7.13108 3.48564 7.0412 3.20599 7.0412C2.92634 7.0412 2.69663 7.13108 2.51686 7.31086C2.33708 7.49063 2.24719 7.72035 2.24719 8C2.24719 8.27965 2.33708 8.50936 2.51686 8.68914C2.69663 8.86891 2.92634 8.9588 3.20599 8.9588ZM13.7528 8C13.7528 7.72035 13.6629 7.49063 13.4831 7.31086C13.3034 7.13108 13.0737 7.0412 12.794 7.0412C12.5144 7.0412 12.2846 7.13108 12.1049 7.31086C11.9251 7.49063 11.8352 7.72035 11.8352 8C11.8352 8.27965 11.9251 8.50936 12.1049 8.68914C12.2846 8.86891 12.5144 8.9588 12.794 8.9588C13.0737 8.9588 13.3034 8.86891 13.4831 8.68914C13.6629 8.50936 13.7528 8.27965 13.7528 8Z" fill="black"/>
</svg>
