<svg width="16" height="16" viewBox="0 0 16 16" fill="none" xmlns="http://www.w3.org/2000/svg">
<path d="M1.76779 2.24719C1.36829 2.26716 1.02872 2.40699 0.749066 2.66667C0.48939 2.94632 0.349565 3.28589 0.32959 3.68539C0.349565 4.16479 0.539328 4.54432 0.898878 4.82397L7.43071 9.73783C7.81024 9.97753 8.18976 9.97753 8.56929 9.73783L15.1011 4.82397C15.4607 4.54432 15.6504 4.16479 15.6704 3.68539C15.6504 3.28589 15.5106 2.94632 15.2509 2.66667C14.9713 2.40699 14.6317 2.26716 14.2322 2.24719H1.76779ZM0.32959 5.60299V11.8352C0.349565 12.3745 0.539328 12.824 0.898878 13.1835C1.25843 13.5431 1.70787 13.7328 2.24719 13.7528H13.7528C14.2921 13.7328 14.7416 13.5431 15.1011 13.1835C15.4607 12.824 15.6504 12.3745 15.6704 11.8352V5.60299L9.13858 10.4869C8.799 10.7466 8.41948 10.8764 8 10.8764C7.58053 10.8764 7.201 10.7466 6.86142 10.4869L0.32959 5.60299Z" fill="black"/>
</svg>
