<svg width="24" height="21" viewBox="0 0 24 21" fill="none" xmlns="http://www.w3.org/2000/svg">
<path d="M19.5506 10.5C19.5506 9.13673 19.2097 7.8783 18.5281 6.72475C17.8727 5.57119 16.9551 4.65359 15.7753 3.97194C14.5955 3.29029 13.3371 2.94946 12 2.94946C10.6629 2.94946 9.4045 3.29029 8.22472 3.97194C7.04495 4.65359 6.12734 5.57119 5.47191 6.72475C4.79026 7.8783 4.44944 9.13673 4.44944 10.5C4.44944 11.8633 4.79026 13.1218 5.47191 14.2753C6.12734 15.4289 7.04495 16.3465 8.22472 17.0281C9.4045 17.7098 10.6629 18.0506 12 18.0506C13.3371 18.0506 14.5955 17.7098 15.7753 17.0281C16.9551 16.3465 17.8727 15.4289 18.5281 14.2753C19.2097 13.1218 19.5506 11.8633 19.5506 10.5ZM1.93259 10.5C1.9588 8.66482 2.4045 6.98692 3.26967 5.46632C4.16105 3.94572 5.39326 2.71351 6.96629 1.76969C8.56555 0.878304 10.2434 0.432611 12 0.432611C13.7566 0.432611 15.4345 0.878304 17.0337 1.76969C18.6067 2.71351 19.839 3.94572 20.7303 5.46632C21.5955 6.98692 22.0412 8.66482 22.0674 10.5C22.0412 12.3352 21.5955 14.0131 20.7303 15.5337C19.839 17.0543 18.6067 18.2865 17.0337 19.2304C15.4345 20.1218 13.7566 20.5674 12 20.5674C10.2434 20.5674 8.56555 20.1218 6.96629 19.2304C5.39326 18.2865 4.16105 17.0543 3.26967 15.5337C2.4045 14.0131 1.9588 12.3352 1.93259 10.5ZM12 13.6461C13.1798 13.6199 14.0843 13.0955 14.7135 12.0731C15.2903 11.0244 15.2903 9.97568 14.7135 8.92699C14.0843 7.90452 13.1798 7.38018 12 7.35396C10.8202 7.38018 9.91573 7.90452 9.28652 8.92699C8.70974 9.97568 8.70974 11.0244 9.28652 12.0731C9.91573 13.0955 10.8202 13.6199 12 13.6461ZM12 4.83711C13.0225 4.83711 13.9663 5.08617 14.8315 5.5843C15.6966 6.08242 16.3914 6.77718 16.9157 7.66857C17.4139 8.55995 17.6629 9.50377 17.6629 10.5C17.6629 11.4963 17.4139 12.4401 16.9157 13.3315C16.3914 14.2229 15.6966 14.9176 14.8315 15.4158C13.9663 15.9139 13.0225 16.1629 12 16.1629C10.9775 16.1629 10.0337 15.9139 9.16854 15.4158C8.30337 14.9176 7.60862 14.2229 7.08427 13.3315C6.58614 12.4401 6.33708 11.4963 6.33708 10.5C6.33708 9.50377 6.58614 8.55995 7.08427 7.66857C7.60862 6.77718 8.30337 6.08242 9.16854 5.5843C10.0337 5.08617 10.9775 4.83711 12 4.83711ZM10.7416 10.5C10.7416 10.133 10.8596 9.83149 11.0955 9.59553C11.3315 9.35958 11.633 9.2416 12 9.2416C12.367 9.2416 12.6685 9.35958 12.9045 9.59553C13.1405 9.83149 13.2584 10.133 13.2584 10.5C13.2584 10.8671 13.1405 11.1686 12.9045 11.4045C12.6685 11.6405 12.367 11.7585 12 11.7585C11.633 11.7585 11.3315 11.6405 11.0955 11.4045C10.8596 11.1686 10.7416 10.8671 10.7416 10.5Z" fill="#275BA8"/>
</svg>
