<svg width="12" height="16" viewBox="0 0 12 16" fill="none" xmlns="http://www.w3.org/2000/svg">
<path d="M10.3146 6.08233C10.2747 4.86385 9.85518 3.84513 9.05618 3.02615C8.23721 2.22715 7.21848 1.80767 6 1.76772C4.78152 1.80767 3.7628 2.22715 2.94382 3.02615C2.14482 3.84513 1.72534 4.86385 1.68539 6.08233C1.68539 6.46185 1.83521 7.03114 2.13483 7.79019C2.47441 8.54924 2.90387 9.34825 3.42322 10.1872C3.86267 10.8863 4.30212 11.5555 4.74157 12.1947C5.201 12.8339 5.62048 13.3932 6 13.8726C6.37953 13.3932 6.799 12.8339 7.25843 12.1947C7.71785 11.5555 8.1573 10.8863 8.57678 10.1872C9.09613 9.34825 9.52559 8.54924 9.86517 7.79019C10.1648 7.03114 10.3146 6.46185 10.3146 6.08233ZM11.7528 6.08233C11.7129 6.9812 11.3933 8.01991 10.794 9.19843C10.1748 10.377 9.47566 11.5155 8.69663 12.6142C7.9176 13.7328 7.25843 14.6217 6.7191 15.2808C6.51935 15.5205 6.27965 15.6404 6 15.6404C5.72035 15.6404 5.48065 15.5205 5.2809 15.2808C4.74157 14.6217 4.0824 13.7328 3.30337 12.6142C2.52435 11.5155 1.82522 10.377 1.20599 9.19843C0.606743 8.01991 0.287142 6.9812 0.247192 6.08233C0.287142 4.44438 0.846443 3.08607 1.9251 2.00742C3.00375 0.92877 4.36205 0.36947 6 0.329519C7.63795 0.36947 8.99626 0.92877 10.0749 2.00742C11.1536 3.08607 11.7129 4.44438 11.7528 6.08233ZM6.9588 6.08233C6.9588 5.80268 6.86892 5.57296 6.68914 5.39319C6.50936 5.21341 6.27965 5.12353 6 5.12353C5.72035 5.12353 5.49064 5.21341 5.31086 5.39319C5.13109 5.57296 5.0412 5.80268 5.0412 6.08233C5.0412 6.36198 5.13109 6.59169 5.31086 6.77147C5.49064 6.95124 5.72035 7.04113 6 7.04113C6.27965 7.04113 6.50936 6.95124 6.68914 6.77147C6.86892 6.59169 6.9588 6.36198 6.9588 6.08233ZM3.603 6.08233C3.62297 5.18345 4.02247 4.49431 4.8015 4.01491C5.6005 3.57546 6.3995 3.57546 7.1985 4.01491C7.97753 4.49431 8.37703 5.18345 8.39701 6.08233C8.37703 6.9812 7.97753 7.67034 7.1985 8.14974C6.3995 8.58919 5.6005 8.58919 4.8015 8.14974C4.02247 7.67034 3.62297 6.9812 3.603 6.08233Z" fill="white"/>
</svg>
