<svg width="18" height="16" viewBox="0 0 18 16" fill="none" xmlns="http://www.w3.org/2000/svg">
<path d="M2.28839 3.68551C1.98877 3.70549 1.82897 3.86529 1.80899 4.16492V11.8353C1.82897 12.135 1.98877 12.2948 2.28839 12.3147H9.9588C10.2584 12.2948 10.4182 12.135 10.4382 11.8353V4.16492C10.4182 3.86529 10.2584 3.70549 9.9588 3.68551H2.28839ZM0.370789 4.16492C0.390764 3.62559 0.580526 3.17615 0.940077 2.8166C1.29963 2.45705 1.74907 2.26729 2.28839 2.24731H9.9588C10.4981 2.26729 10.9476 2.45705 11.3071 2.8166C11.6667 3.17615 11.8564 3.62559 11.8764 4.16492V5.15368V10.8466V11.8353C11.8564 12.3747 11.6667 12.8241 11.3071 13.1836C10.9476 13.5432 10.4981 13.733 9.9588 13.7529H2.28839C1.74907 13.733 1.29963 13.5432 0.940077 13.1836C0.580526 12.8241 0.390764 12.3747 0.370789 11.8353V4.16492ZM16.191 11.2061V4.79413L12.8352 6.29226V4.70424L15.9513 3.32596C16.1111 3.24606 16.2809 3.20611 16.4607 3.20611C16.7803 3.20611 17.0499 3.32596 17.2697 3.56566C17.5094 3.78539 17.6292 4.06504 17.6292 4.40462V11.6256C17.6292 11.9452 17.5094 12.2149 17.2697 12.4346C17.0499 12.6743 16.7803 12.7941 16.4607 12.7941C16.2809 12.7941 16.1111 12.7642 15.9513 12.7042L12.8352 11.296V9.70799L16.191 11.2061Z" fill="#275BA8"/>
</svg>
