<svg width="25" height="25" viewBox="0 0 25 25" fill="none" xmlns="http://www.w3.org/2000/svg">
<path d="M18.1222 14.9454C17.818 14.7891 16.3031 14.0469 16.0213 13.9465C15.7395 13.8405 15.533 13.7903 15.3293 14.1028C15.1228 14.4125 14.5369 15.1016 14.3527 15.3109C14.1742 15.5174 13.9928 15.5425 13.6887 15.389C11.8806 14.485 10.6948 13.7763 9.50347 11.7311C9.18819 11.187 9.81876 11.2261 10.4074 10.0515C10.5079 9.845 10.4576 9.66922 10.3795 9.51297C10.3015 9.35673 9.68762 7.84447 9.43092 7.22785C9.18261 6.62797 8.92591 6.71167 8.73897 6.70051C8.56041 6.68936 8.35672 6.68936 8.15025 6.68936C7.94379 6.68936 7.61176 6.76747 7.32995 7.0716C7.04815 7.3813 6.25296 8.12627 6.25296 9.63853C6.25296 11.1507 7.35506 12.6156 7.50573 12.8221C7.66198 13.0285 9.67367 16.1312 12.7623 17.4676C14.7155 18.3102 15.48 18.3828 16.4565 18.2377C17.0508 18.1484 18.2756 17.4955 18.5295 16.773C18.7834 16.0531 18.7834 15.4365 18.7081 15.3081C18.6328 15.1714 18.4263 15.0933 18.1222 14.9454Z" fill="white"/>
<path d="M24.0288 7.65614C23.3983 6.15783 22.4943 4.81299 21.3419 3.65787C20.1977 2.50944 18.8392 1.59658 17.3436 0.970968C15.8091 0.326446 14.1796 0 12.5 0H12.4442C10.7533 0.00837042 9.11554 0.343187 7.57538 1.00166C6.09258 1.63369 4.74692 2.54817 3.61339 3.69415C2.47222 4.84647 1.57659 6.18574 0.957176 7.67846C0.315444 9.22419 -0.00821212 10.8675 0.000158292 12.5584C0.00962593 14.4961 0.468041 16.4052 1.33942 18.1359V22.3769C1.33942 22.7173 1.47465 23.0438 1.71534 23.2845C1.95604 23.5252 2.2825 23.6604 2.62289 23.6604H6.86669C8.59739 24.5317 10.5065 24.9901 12.4442 24.9996H12.5027C14.1741 24.9996 15.7952 24.6759 17.3213 24.0426C18.8094 23.4245 20.1627 22.5223 21.3057 21.3864C22.458 20.2452 23.3648 18.9115 23.9981 17.4244C24.6566 15.8843 24.9914 14.2465 24.9998 12.5556C25.0081 10.8564 24.6789 9.20746 24.0288 7.65614ZM19.8129 19.8769C17.857 21.8133 15.2622 22.8792 12.5 22.8792H12.4525C10.77 22.8708 9.0988 22.4523 7.62282 21.6654L7.38844 21.5399H3.45993V17.6113L3.33437 17.3769C2.54755 15.901 2.12903 14.2297 2.12066 12.5472C2.1095 9.76548 3.17254 7.15392 5.12286 5.18686C7.07037 3.21982 9.67357 2.13167 12.4553 2.12051H12.5027C13.8978 2.12051 15.2511 2.39115 16.5262 2.92686C17.7705 3.44861 18.8866 4.19916 19.8464 5.15896C20.8034 6.11598 21.5568 7.23482 22.0785 8.47923C22.6198 9.76827 22.8905 11.1354 22.8849 12.5472C22.8682 15.3263 21.7772 17.9294 19.8129 19.8769Z" fill="white"/>
</svg>
