<svg width="16" height="16" viewBox="0 0 16 16" fill="none" xmlns="http://www.w3.org/2000/svg">
<path d="M6.95131 3.95511L8.44944 3.20605H13.7528V6.08246H10.3071C9.64794 5.62303 8.8789 5.38333 8 5.36335C7.1211 5.38333 6.35206 5.62303 5.69289 6.08246H2.24719V4.16485H6.0824C6.38202 4.16485 6.67166 4.09494 6.95131 3.95511ZM0.32959 4.16485V12.7941C0.349565 13.3334 0.539328 13.7828 0.898878 14.1424C1.25843 14.5019 1.70787 14.6917 2.24719 14.7117H13.7528C14.2921 14.6917 14.7416 14.5019 15.1011 14.1424C15.4607 13.7828 15.6504 13.3334 15.6704 12.7941V3.20605C15.6504 2.66673 15.4607 2.21729 15.1011 1.85774C14.7416 1.49819 14.2921 1.30842 13.7528 1.28845H8.44944C8.14981 1.28845 7.87016 1.35836 7.61049 1.49819L6.0824 2.24725H5.1236V1.76785C5.10362 1.46822 4.94382 1.30842 4.6442 1.28845H2.72659C2.42697 1.30842 2.26717 1.46822 2.24719 1.76785V2.24725C1.70787 2.26722 1.25843 2.45699 0.898878 2.81654C0.539328 3.17609 0.349565 3.62553 0.32959 4.16485ZM5.3633 9.43826C5.40325 8.43951 5.8427 7.68046 6.68165 7.16111C7.56055 6.68171 8.43945 6.68171 9.31835 7.16111C10.1573 7.68046 10.5968 8.43951 10.6367 9.43826C10.5968 10.437 10.1573 11.1961 9.31835 11.7154C8.43945 12.1948 7.56055 12.1948 6.68165 11.7154C5.8427 11.1961 5.40325 10.437 5.3633 9.43826Z" fill="black"/>
</svg>
