<svg width="15" height="15" viewBox="0 0 15 15" fill="none" xmlns="http://www.w3.org/2000/svg">
<path d="M0.758433 7.61227C0.440081 7.81826 0.290268 8.09916 0.308995 8.45496C0.346448 8.81077 0.533714 9.07294 0.870792 9.24148L4.80338 10.8707V13.764C4.80338 14.0261 4.89701 14.2415 5.08428 14.41C5.25282 14.5973 5.46817 14.6909 5.73034 14.6909C6.01124 14.6909 6.24532 14.5786 6.43259 14.3538L8.17416 12.2752L11.6573 13.7359C11.9382 13.8295 12.2004 13.8108 12.4438 13.6797C12.6873 13.5299 12.8371 13.3145 12.8933 13.0336L14.691 1.34822C14.7285 0.973689 14.5974 0.683427 14.2978 0.477434C13.9981 0.271441 13.6798 0.252715 13.3427 0.421255L0.758433 7.61227ZM2.21911 8.3426L11.8258 2.86508L5.64607 9.7471L5.67416 9.77519L2.21911 8.3426ZM11.6292 12.2471L6.9663 10.3089L12.9775 3.59541L11.6292 12.2471Z" fill="white"/>
</svg>
