<svg width="24" height="21" viewBox="0 0 24 21" fill="none" xmlns="http://www.w3.org/2000/svg">
<path d="M8.53932 15.5731C7.91011 15.3634 7.33333 15.442 6.80899 15.8091C6.46816 16.0713 5.94382 16.3728 5.23595 16.7136C5.47191 16.1368 5.62921 15.4945 5.70786 14.7866C5.73408 14.2623 5.57678 13.7904 5.23595 13.3709C4.29213 12.3222 3.82022 11.1555 3.82022 9.87088C3.84644 8.24541 4.59363 6.80346 6.0618 5.54504C7.52996 4.31283 9.50936 3.6574 12 3.57874C14.4906 3.6574 16.47 4.31283 17.9382 5.54504C19.4064 6.80346 20.1536 8.24541 20.1798 9.87088C20.1536 11.4963 19.4064 12.9383 17.9382 14.1967C16.47 15.4289 14.4906 16.0844 12 16.163C10.7416 16.163 9.58801 15.9664 8.53932 15.5731ZM2.95505 17.1068C2.90262 17.2117 2.83708 17.3166 2.75843 17.4214C2.73221 17.4739 2.70599 17.5263 2.67977 17.5787C2.62734 17.6312 2.58801 17.6705 2.5618 17.6967C2.43071 17.8802 2.28652 18.0638 2.12921 18.2473C1.94569 18.4308 1.89326 18.6537 1.97191 18.9158C2.10299 19.178 2.29962 19.3091 2.5618 19.3091C2.66667 19.3091 2.77153 19.3091 2.8764 19.3091C2.98127 19.3091 3.08614 19.296 3.19101 19.2698C3.37453 19.2435 3.54494 19.2173 3.70225 19.1911C3.75468 19.1911 3.79401 19.1911 3.82022 19.1911C4.52809 19.0338 5.18352 18.8241 5.78652 18.5619C6.70412 18.1162 7.41198 17.7098 7.91011 17.3428C9.16854 17.8147 10.5318 18.0507 12 18.0507C13.8876 18.0244 15.5918 17.6574 17.1124 16.9495C18.6067 16.2154 19.7996 15.2323 20.691 14.0001C21.5824 12.7679 22.0412 11.3915 22.0674 9.87088C22.0412 8.35028 21.5824 6.97388 20.691 5.74167C19.7996 4.50946 18.5936 3.52631 17.073 2.79223C15.5787 2.08436 13.8876 1.71732 12 1.6911C10.1124 1.71732 8.42135 2.08436 6.92697 2.79223C5.40637 3.52631 4.20037 4.50946 3.30899 5.74167C2.4176 6.97388 1.9588 8.35028 1.93258 9.87088C1.9588 11.6799 2.58801 13.266 3.82022 14.6293C3.68914 15.5993 3.40075 16.4252 2.95505 17.1068ZM7.91011 7.35402C7.33333 7.40646 7.01873 7.72107 6.96629 8.29785C7.01873 8.87462 7.33333 9.18923 7.91011 9.24167H16.0899C16.6667 9.18923 16.9813 8.87462 17.0337 8.29785C16.9813 7.72107 16.6667 7.40646 16.0899 7.35402H7.91011ZM7.91011 11.1293C7.33333 11.1817 7.01873 11.4963 6.96629 12.0731C7.01873 12.6499 7.33333 12.9645 7.91011 13.0169H12.3146C12.8914 12.9645 13.206 12.6499 13.2584 12.0731C13.206 11.4963 12.8914 11.1817 12.3146 11.1293H7.91011Z" fill="#275BA8"/>
</svg>
