<svg width="20" height="16" viewBox="0 0 20 16" fill="none" xmlns="http://www.w3.org/2000/svg">
<path d="M4.72659 5.12359C5.62547 5.10362 6.31461 4.70412 6.79401 3.92509C7.23346 3.12609 7.23346 2.32709 6.79401 1.52809C6.31461 0.749062 5.62547 0.349561 4.72659 0.329586C3.82772 0.349561 3.13858 0.749062 2.65918 1.52809C2.21973 2.32709 2.21973 3.12609 2.65918 3.92509C3.13858 4.70412 3.82772 5.10362 4.72659 5.12359ZM15.7528 5.12359C16.6517 5.10362 17.3408 4.70412 17.8202 3.92509C18.2597 3.12609 18.2597 2.32709 17.8202 1.52809C17.3408 0.749062 16.6517 0.349561 15.7528 0.329586C14.8539 0.349561 14.1648 0.749062 13.6854 1.52809C13.2459 2.32709 13.2459 3.12609 13.6854 3.92509C14.1648 4.70412 14.8539 5.10362 15.7528 5.12359ZM0.411987 9.28839C0.451937 9.66791 0.661675 9.87765 1.0412 9.9176H7.45319C6.63421 9.17852 6.20475 8.21972 6.1648 7.0412C6.1648 6.82147 6.18477 6.60175 6.22472 6.38202C5.80525 6.18227 5.35581 6.0824 4.87641 6.0824H3.61798C2.69913 6.10237 1.94008 6.41198 1.34083 7.01123C0.741575 7.61049 0.431962 8.36954 0.411987 9.28839ZM10 9.9176C10.7391 9.89763 11.3683 9.66791 11.8876 9.22846C11.9476 9.10861 12.0275 8.99875 12.1273 8.89887C12.2072 8.799 12.2971 8.7191 12.397 8.65917C12.7166 8.17977 12.8764 7.64045 12.8764 7.0412C12.8564 6.22222 12.5768 5.54307 12.0375 5.00374C11.4981 4.46442 10.819 4.18477 10 4.16479C9.18103 4.18477 8.50187 4.46442 7.96255 5.00374C7.42322 5.54307 7.14357 6.22222 7.1236 7.0412C7.14357 7.86017 7.42322 8.53932 7.96255 9.07865C8.50187 9.61798 9.18103 9.89763 10 9.9176ZM11.9476 11.7154C11.628 11.5356 11.4282 11.2559 11.3483 10.8764H8.23221C7.11361 10.8964 6.17478 11.2859 5.41573 12.0449C4.65668 12.804 4.26717 13.7428 4.24719 14.8614C4.28714 15.3608 4.55681 15.6305 5.05618 15.6704H14.0449C13.985 15.5106 13.9551 15.3508 13.9551 15.191V15.1011C13.9151 15.0811 13.8752 15.0512 13.8352 15.0112L13.7453 15.0712C13.4856 15.211 13.206 15.2609 12.9064 15.221C12.6067 15.181 12.3471 15.0312 12.1273 14.7715C11.9875 14.6117 11.8577 14.4419 11.7378 14.2622V14.2322L11.6779 14.1124H11.6479C11.5481 13.9126 11.4582 13.7129 11.3783 13.5131C11.2784 13.1935 11.2884 12.8939 11.4082 12.6142C11.5281 12.3346 11.7079 12.1149 11.9476 11.9551L12.0375 11.8951C12.0375 11.8752 12.0375 11.8552 12.0375 11.8352C12.0375 11.8152 12.0375 11.7953 12.0375 11.7753L11.9476 11.7154ZM16.382 6.0824H15.1236C14.6442 6.0824 14.1948 6.18227 13.7753 6.38202C13.8152 6.60175 13.8352 6.82147 13.8352 7.0412C13.8352 7.56055 13.7353 8.04994 13.5356 8.50936C13.6155 8.52934 13.6854 8.5593 13.7453 8.59925L13.8352 8.65917C13.8752 8.6392 13.9151 8.61922 13.9551 8.59925V8.50936C13.9551 8.18976 14.0449 7.91011 14.2247 7.67041C14.4245 7.43071 14.6941 7.2809 15.0337 7.22097C15.2734 7.18102 15.5131 7.16105 15.7528 7.16105C15.9925 7.16105 16.2322 7.18102 16.4719 7.22097C16.8115 7.2809 17.0812 7.43071 17.2809 7.67041C17.4607 7.91011 17.5506 8.18976 17.5506 8.50936V8.59925C17.5905 8.61922 17.6305 8.6392 17.6704 8.65917L17.7603 8.59925C18.02 8.45942 18.2996 8.40949 18.5993 8.44944C18.8989 8.48939 19.1586 8.6392 19.3783 8.89887C19.4582 8.97877 19.5281 9.06866 19.588 9.16854C19.5281 8.28964 19.1985 7.56055 18.5993 6.98127C18.02 6.402 17.2809 6.10237 16.382 6.0824ZM19.1386 10.9963C19.3383 10.8564 19.3983 10.6767 19.3184 10.4569C19.2584 10.2971 19.1885 10.1373 19.1086 9.97753L19.0487 9.85768C18.9488 9.69788 18.839 9.55805 18.7191 9.4382C18.5593 9.25843 18.3695 9.22846 18.1498 9.34831L18.0899 9.37828C17.7903 9.53808 17.4906 9.52809 17.191 9.34831C16.8914 9.16854 16.7316 8.91885 16.7116 8.59925V8.4794C16.6916 8.2397 16.5718 8.09987 16.3521 8.05992C16.1523 8.01997 15.9526 8 15.7528 8C15.5531 8 15.3533 8.01997 15.1536 8.05992C14.9338 8.09987 14.814 8.2397 14.794 8.4794V8.59925C14.774 8.91885 14.6142 9.16854 14.3146 9.34831C14.015 9.52809 13.7154 9.53808 13.4157 9.37828L13.3258 9.34831C13.1261 9.22846 12.9363 9.25843 12.7566 9.4382C12.6567 9.55805 12.5568 9.69788 12.4569 9.85768L12.397 9.97753C12.3171 10.1373 12.2372 10.2971 12.1573 10.4569C12.0974 10.6767 12.1673 10.8564 12.367 10.9963L12.4569 11.0562C12.7366 11.236 12.8764 11.4956 12.8764 11.8352C12.8764 12.1748 12.7366 12.4345 12.4569 12.6142L12.367 12.6742C12.1673 12.814 12.0974 12.9938 12.1573 13.2135C12.2172 13.3733 12.2971 13.5331 12.397 13.6929L12.4569 13.8127C12.5568 13.9526 12.6567 14.0924 12.7566 14.2322C12.9164 14.412 13.1061 14.4419 13.3258 14.3221L13.4157 14.2921C13.7154 14.1323 14.015 14.1423 14.3146 14.3221C14.6142 14.4819 14.774 14.7316 14.794 15.0712V15.161C14.794 15.4007 14.9139 15.5506 15.1536 15.6105C15.3533 15.6504 15.5531 15.6704 15.7528 15.6704C15.9526 15.6704 16.1523 15.6504 16.3521 15.6105C16.5718 15.5506 16.6916 15.4007 16.7116 15.161V15.0712C16.7316 14.7316 16.8914 14.4819 17.191 14.3221C17.4906 14.1423 17.7803 14.1323 18.0599 14.2921L18.1498 14.3221C18.3695 14.4419 18.5593 14.412 18.7191 14.2322C18.839 14.0924 18.9388 13.9526 19.0187 13.8127L19.1086 13.6929C19.1885 13.5331 19.2584 13.3733 19.3184 13.2135C19.3983 12.9738 19.3383 12.794 19.1386 12.6742L19.0487 12.6142C18.769 12.4345 18.6292 12.1748 18.6292 11.8352C18.6292 11.4956 18.769 11.226 19.0487 11.0262L19.1386 10.9963ZM14.5543 11.8352C14.5743 11.3758 14.774 11.0262 15.1536 10.7865C15.5531 10.5868 15.9526 10.5868 16.3521 10.7865C16.7316 11.0262 16.9313 11.3758 16.9513 11.8352C16.9313 12.2946 16.7316 12.6442 16.3521 12.8839C15.9526 13.0836 15.5531 13.0836 15.1536 12.8839C14.774 12.6442 14.5743 12.2946 14.5543 11.8352Z" fill="black"/>
</svg>
