<svg width="16" height="16" viewBox="0 0 16 16" fill="none" xmlns="http://www.w3.org/2000/svg">
<path d="M12.794 6.5618C12.774 7.96005 12.3745 9.18851 11.5955 10.2472L15.4008 14.0225C15.5805 14.2222 15.6704 14.4519 15.6704 14.7116C15.6704 14.9713 15.5805 15.201 15.4008 15.4007C15.201 15.5805 14.9713 15.6704 14.7116 15.6704C14.4519 15.6704 14.2222 15.5805 14.0225 15.4007L10.2472 11.5955C9.18852 12.3745 7.96005 12.774 6.5618 12.794C4.804 12.7541 3.33583 12.1448 2.15731 10.9663C0.978778 9.78776 0.36954 8.3196 0.32959 6.5618C0.36954 4.80399 0.978778 3.33583 2.15731 2.1573C3.33583 0.978775 4.804 0.369536 6.5618 0.329586C8.3196 0.369536 9.78777 0.978775 10.9663 2.1573C12.1448 3.33583 12.7541 4.80399 12.794 6.5618ZM6.5618 10.8764C7.34083 10.8764 8.05993 10.6866 8.7191 10.3071C9.37828 9.92759 9.90762 9.39825 10.3071 8.7191C10.6866 8.03995 10.8764 7.32085 10.8764 6.5618C10.8764 5.80274 10.6866 5.08364 10.3071 4.40449C9.90762 3.72534 9.37828 3.196 8.7191 2.81648C8.05993 2.43695 7.34083 2.24719 6.5618 2.24719C5.78277 2.24719 5.06367 2.43695 4.4045 2.81648C3.74532 3.196 3.21598 3.72534 2.81648 4.40449C2.43696 5.08364 2.24719 5.80274 2.24719 6.5618C2.24719 7.32085 2.43696 8.03995 2.81648 8.7191C3.21598 9.39825 3.74532 9.92759 4.4045 10.3071C5.06367 10.6866 5.78277 10.8764 6.5618 10.8764Z" fill="black"/>
</svg>
