<svg width="16" height="16" viewBox="0 0 16 16" fill="none" xmlns="http://www.w3.org/2000/svg">
<path d="M2.24719 3.68551C1.94757 3.70549 1.78777 3.86529 1.76779 4.16492V4.82409L6.95131 9.07877C7.27091 9.31847 7.62048 9.43832 8 9.43832C8.3995 9.43832 8.75905 9.31847 9.07865 9.07877L14.2322 4.82409V4.16492C14.2122 3.86529 14.0524 3.70549 13.7528 3.68551H2.24719ZM1.76779 6.68177V11.8353C1.78777 12.135 1.94757 12.2948 2.24719 12.3147H13.7528C14.0524 12.2948 14.2122 12.135 14.2322 11.8353V6.68177L9.97753 10.1874C9.37828 10.6468 8.7191 10.8765 8 10.8765C7.2809 10.8765 6.62172 10.6468 6.02247 10.1874L1.76779 6.68177ZM0.32959 4.16492C0.349565 3.62559 0.539328 3.17615 0.898878 2.8166C1.25843 2.45705 1.70787 2.26729 2.24719 2.24731H13.7528C14.2921 2.26729 14.7416 2.45705 15.1011 2.8166C15.4607 3.17615 15.6504 3.62559 15.6704 4.16492V11.8353C15.6504 12.3747 15.4607 12.8241 15.1011 13.1836C14.7416 13.5432 14.2921 13.733 13.7528 13.7529H2.24719C1.70787 13.733 1.25843 13.5432 0.898878 13.1836C0.539328 12.8241 0.349565 12.3747 0.32959 11.8353V4.16492Z" fill="white"/>
</svg>
