<svg width="20" height="16" viewBox="0 0 20 16" fill="none" xmlns="http://www.w3.org/2000/svg">
<path d="M4.72659 0.329586C5.62547 0.349561 6.31461 0.749062 6.79401 1.52809C7.23346 2.32709 7.23346 3.12609 6.79401 3.92509C6.31461 4.70412 5.62547 5.10362 4.72659 5.12359C3.82772 5.10362 3.13858 4.70412 2.65918 3.92509C2.21973 3.12609 2.21973 2.32709 2.65918 1.52809C3.13858 0.749062 3.82772 0.349561 4.72659 0.329586ZM15.7528 0.329586C16.6517 0.349561 17.3408 0.749062 17.8202 1.52809C18.2597 2.32709 18.2597 3.12609 17.8202 3.92509C17.3408 4.70412 16.6517 5.10362 15.7528 5.12359C14.8539 5.10362 14.1648 4.70412 13.6854 3.92509C13.2459 3.12609 13.2459 2.32709 13.6854 1.52809C14.1648 0.749062 14.8539 0.349561 15.7528 0.329586ZM0.411987 9.28839C0.431962 8.36954 0.741575 7.61049 1.34083 7.01123C1.94008 6.41198 2.69913 6.10237 3.61798 6.0824H4.87641C5.35581 6.0824 5.80525 6.18227 6.22472 6.38202C6.18477 6.60175 6.1648 6.82147 6.1648 7.0412C6.20475 8.21972 6.63421 9.17852 7.45319 9.9176H1.0412C0.661675 9.87765 0.451937 9.66791 0.411987 9.28839ZM12.5468 9.9176C13.3658 9.17852 13.7953 8.21972 13.8352 7.0412C13.8352 6.82147 13.8152 6.60175 13.7753 6.38202C14.1948 6.18227 14.6442 6.0824 15.1236 6.0824H16.382C17.3009 6.10237 18.0599 6.41198 18.6592 7.01123C19.2584 7.61049 19.568 8.36954 19.588 9.28839C19.5481 9.66791 19.3383 9.87765 18.9588 9.9176H12.5468ZM7.1236 7.0412C7.1236 6.52185 7.25344 6.04245 7.51311 5.60299C7.77279 5.16354 8.12235 4.81398 8.5618 4.55431C9.02122 4.29463 9.50063 4.16479 10 4.16479C10.4994 4.16479 10.9788 4.29463 11.4382 4.55431C11.8777 4.81398 12.2272 5.16354 12.4869 5.60299C12.7466 6.04245 12.8764 6.52185 12.8764 7.0412C12.8764 7.56055 12.7466 8.03995 12.4869 8.4794C12.2272 8.91885 11.8777 9.26841 11.4382 9.52809C10.9788 9.78776 10.4994 9.9176 10 9.9176C9.50063 9.9176 9.02122 9.78776 8.5618 9.52809C8.12235 9.26841 7.77279 8.91885 7.51311 8.4794C7.25344 8.03995 7.1236 7.56055 7.1236 7.0412ZM4.24719 14.8614C4.26717 13.7428 4.65668 12.804 5.41573 12.0449C6.17478 11.2859 7.11361 10.8964 8.23221 10.8764H11.7678C12.8864 10.8964 13.8252 11.2859 14.5843 12.0449C15.3433 12.804 15.7328 13.7428 15.7528 14.8614C15.7129 15.3608 15.4432 15.6305 14.9438 15.6704H5.05618C4.55681 15.6305 4.28714 15.3608 4.24719 14.8614Z" fill="black"/>
</svg>
