<svg width="16" height="16" viewBox="0 0 16 16" fill="none" xmlns="http://www.w3.org/2000/svg">
<path d="M15.4307 2.54663C15.7303 2.22703 15.7503 1.88746 15.4906 1.52791C15.171 1.22828 14.8315 1.2083 14.4719 1.46798L9.91761 5.36311L6.5618 2.42678C6.28215 2.20706 5.99251 2.18708 5.69289 2.36686L0.659181 5.72266C0.319605 6.00231 0.249693 6.3319 0.449443 6.71143C0.729093 7.051 1.05868 7.12091 1.43821 6.92116L6.02248 3.86498L9.43821 6.86124C9.75781 7.10094 10.0774 7.10094 10.397 6.86124L15.4307 2.54663ZM6.3221 13.2732C6.30213 13.413 6.22223 13.4929 6.0824 13.5129C5.94258 13.4929 5.86268 13.413 5.8427 13.2732V8.47922C5.86268 8.33939 5.94258 8.25949 6.0824 8.23952C6.22223 8.25949 6.30213 8.33939 6.3221 8.47922V13.2732ZM6.0824 7.04101C5.6829 7.06099 5.34333 7.20081 5.06367 7.46049C4.804 7.74014 4.66417 8.07972 4.6442 8.47922V13.2732C4.66417 13.6727 4.804 14.0123 5.06367 14.292C5.34333 14.5516 5.6829 14.6915 6.0824 14.7114C6.4819 14.6915 6.82148 14.5516 7.10113 14.292C7.3608 14.0123 7.50063 13.6727 7.5206 13.2732V8.47922C7.50063 8.07972 7.3608 7.74014 7.10113 7.46049C6.82148 7.20081 6.4819 7.06099 6.0824 7.04101ZM2.4869 13.2732C2.46692 13.413 2.38702 13.4929 2.2472 13.5129C2.10737 13.4929 2.02747 13.413 2.0075 13.2732V11.3556C2.02747 11.2158 2.10737 11.1359 2.2472 11.1159C2.38702 11.1359 2.46692 11.2158 2.4869 11.3556V13.2732ZM2.2472 9.91742C1.8477 9.93739 1.50812 10.0772 1.22847 10.3369C0.968794 10.6165 0.828968 10.9561 0.808993 11.3556V13.2732C0.828968 13.6727 0.968794 14.0123 1.22847 14.292C1.50812 14.5516 1.8477 14.6915 2.2472 14.7114C2.6467 14.6915 2.98627 14.5516 3.26592 14.292C3.5256 14.0123 3.66542 13.6727 3.6854 13.2732V11.3556C3.66542 10.9561 3.5256 10.6165 3.26592 10.3369C2.98627 10.0772 2.6467 9.93739 2.2472 9.91742ZM10.1573 10.3968V13.2732C10.1373 13.413 10.0574 13.4929 9.91761 13.5129C9.77778 13.4929 9.69788 13.413 9.67791 13.2732V10.3968C9.69788 10.257 9.77778 10.1771 9.91761 10.1571C10.0574 10.1771 10.1373 10.257 10.1573 10.3968ZM8.47941 10.3968V13.2732C8.49938 13.6727 8.63921 14.0123 8.89888 14.292C9.17853 14.5516 9.51811 14.6915 9.91761 14.7114C10.3171 14.6915 10.6567 14.5516 10.9363 14.292C11.196 14.0123 11.3358 13.6727 11.3558 13.2732V10.3968C11.3358 9.99732 11.196 9.65774 10.9363 9.37809C10.6567 9.11842 10.3171 8.97859 9.91761 8.95862C9.51811 8.97859 9.17853 9.11842 8.89888 9.37809C8.63921 9.65774 8.49938 9.99732 8.47941 10.3968ZM13.9925 13.2732C13.9725 13.413 13.8926 13.4929 13.7528 13.5129C13.613 13.4929 13.5331 13.413 13.5131 13.2732V8.47922C13.5331 8.33939 13.613 8.25949 13.7528 8.23952C13.8926 8.25949 13.9725 8.33939 13.9925 8.47922V13.2732ZM13.7528 7.04101C13.3533 7.06099 13.0137 7.20081 12.7341 7.46049C12.4744 7.74014 12.3346 8.07972 12.3146 8.47922V13.2732C12.3346 13.6727 12.4744 14.0123 12.7341 14.292C13.0137 14.5516 13.3533 14.6915 13.7528 14.7114C14.1523 14.6915 14.4919 14.5516 14.7715 14.292C15.0312 14.0123 15.171 13.6727 15.191 13.2732V8.47922C15.171 8.07972 15.0312 7.74014 14.7715 7.46049C14.4919 7.20081 14.1523 7.06099 13.7528 7.04101Z" fill="#275BA8"/>
</svg>
