<svg width="20" height="16" viewBox="0 0 20 16" fill="none" xmlns="http://www.w3.org/2000/svg">
<path d="M17.6704 1.76779H7.1236C6.82397 1.78776 6.66417 1.94756 6.6442 2.24719V3.47565C6.20475 3.29588 5.72535 3.20599 5.20599 3.20599V2.24719C5.22597 1.70786 5.41573 1.25842 5.77528 0.898874C6.13483 0.539324 6.58427 0.349561 7.1236 0.329586H17.6704C18.2097 0.349561 18.6592 0.539324 19.0187 0.898874C19.3783 1.25842 19.568 1.70786 19.588 2.24719V10.8764C19.568 11.4157 19.3783 11.8652 19.0187 12.2247C18.6592 12.5843 18.2097 12.774 17.6704 12.794H10.5094C10.2497 12.2547 9.91011 11.7753 9.49064 11.3558H17.6704C17.97 11.3358 18.1298 11.176 18.1498 10.8764V2.24719C18.1298 1.94756 17.97 1.78776 17.6704 1.76779ZM12.7865 4.49438C12.6467 4.35456 12.6067 4.18477 12.6667 3.98502C12.7665 3.80524 12.9164 3.70537 13.1161 3.68539H15.7528C16.0524 3.70537 16.2122 3.86517 16.2322 4.16479V6.8015C16.2322 7.00125 16.1323 7.15106 15.9326 7.25093C15.7328 7.31086 15.563 7.27091 15.4232 7.13108L14.6142 6.3221L12.427 8.50936C12.0874 8.78901 11.7478 8.78901 11.4082 8.50936L9.49064 6.59176C9.21099 6.25218 9.21099 5.91261 9.49064 5.57303C9.83021 5.29338 10.1698 5.29338 10.5094 5.57303L11.9176 6.98127L13.5955 5.30337L12.7865 4.49438ZM5.20599 8.4794C5.74532 8.45942 6.1648 8.21972 6.46442 7.7603C6.70412 7.2809 6.70412 6.8015 6.46442 6.3221C6.1648 5.86267 5.74532 5.62297 5.20599 5.60299C4.66667 5.62297 4.24719 5.86267 3.94757 6.3221C3.70787 6.8015 3.70787 7.2809 3.94757 7.7603C4.24719 8.21972 4.66667 8.45942 5.20599 8.4794ZM5.20599 4.16479C5.72535 4.16479 6.20475 4.29463 6.6442 4.55431C7.08365 4.81398 7.43321 5.16354 7.69289 5.60299C7.95256 6.06242 8.0824 6.54182 8.0824 7.0412C8.0824 7.54057 7.95256 8.01997 7.69289 8.4794C7.43321 8.91885 7.08365 9.26841 6.6442 9.52809C6.20475 9.78776 5.72535 9.9176 5.20599 9.9176C4.68664 9.9176 4.20724 9.78776 3.76779 9.52809C3.32834 9.26841 2.97878 8.91885 2.7191 8.4794C2.45943 8.01997 2.32959 7.54057 2.32959 7.0412C2.32959 6.54182 2.45943 6.06242 2.7191 5.60299C2.97878 5.16354 3.32834 4.81398 3.76779 4.55431C4.20724 4.29463 4.68664 4.16479 5.20599 4.16479ZM4.39701 12.3146C3.79776 12.3346 3.2784 12.5144 2.83895 12.8539C2.37953 13.2135 2.0799 13.6729 1.94008 14.2322H8.47191C8.33209 13.6729 8.03246 13.2135 7.57304 12.8539C7.13358 12.5144 6.61423 12.3346 6.01498 12.3146H4.39701ZM4.39701 10.8764H6.01498C7.13358 10.8964 8.07241 11.2859 8.83146 12.0449C9.59051 12.804 9.98003 13.7428 10 14.8614C9.96005 15.3608 9.69039 15.6305 9.19101 15.6704H1.22098C0.7216 15.6305 0.451937 15.3608 0.411987 14.8614C0.431962 13.7428 0.821475 12.804 1.58053 12.0449C2.33958 11.2859 3.2784 10.8964 4.39701 10.8764Z" fill="#275BA8"/>
</svg>
