<svg width="29" height="21" viewBox="0 0 29 21" fill="none" xmlns="http://www.w3.org/2000/svg">
<path d="M13.2416 2.9494C13.2154 3.63105 12.9925 4.20783 12.573 4.67974L13.6348 6.92132C14.1067 6.79023 14.6049 6.72469 15.1292 6.72469C16.7022 6.7509 18.0131 7.28836 19.0618 8.33704L22.1292 6.09547C22.0768 5.88573 22.0506 5.676 22.0506 5.46626C22.0768 4.75839 22.3258 4.1685 22.7978 3.6966C23.2697 3.22469 23.8596 2.97562 24.5674 2.9494C25.2753 2.97562 25.8652 3.22469 26.3371 3.6966C26.809 4.1685 27.0581 4.75839 27.0843 5.46626C27.0581 6.17412 26.809 6.76401 26.3371 7.23592C25.8652 7.70783 25.2753 7.95689 24.5674 7.98311C24.0693 7.98311 23.6236 7.85203 23.2303 7.58985L20.2022 9.83143C20.5955 10.6179 20.7921 11.47 20.7921 12.3876C20.7921 13.1217 20.661 13.8033 20.3989 14.4326L23.0337 16.0449C23.4794 15.7041 23.9906 15.5337 24.5674 15.5337C25.2753 15.5599 25.8652 15.809 26.3371 16.2809C26.809 16.7528 27.0581 17.3427 27.0843 18.0505C27.0581 18.7584 26.809 19.3483 26.3371 19.8202C25.8652 20.2921 25.2753 20.5412 24.5674 20.5674C23.8596 20.5412 23.2697 20.2921 22.7978 19.8202C22.3258 19.3483 22.0768 18.7584 22.0506 18.0505C22.0506 17.9194 22.0637 17.7884 22.0899 17.6573L19.4157 16.0842C18.3408 17.3427 16.912 17.9981 15.1292 18.0505C13.6873 18.0243 12.4682 17.5786 11.4719 16.7134C10.4494 15.8221 9.80712 14.6947 9.54494 13.3314H6.75281C6.56929 13.8033 6.26779 14.1835 5.84831 14.4719C5.42884 14.7603 4.95693 14.9045 4.43258 14.9045C3.72472 14.8782 3.13483 14.6292 2.66292 14.1573C2.19101 13.6854 1.94195 13.0955 1.91573 12.3876C1.94195 11.6797 2.19101 11.0899 2.66292 10.6179C3.13483 10.146 3.72472 9.89697 4.43258 9.87075C4.95693 9.87075 5.42884 10.0149 5.84831 10.3033C6.26779 10.5917 6.56929 10.9719 6.75281 11.4438H9.54494C9.85955 9.87075 10.6461 8.63854 11.9045 7.74716L10.8427 5.46626C10.8165 5.46626 10.7772 5.46626 10.7247 5.46626C10.0169 5.44004 9.42697 5.19098 8.95506 4.71907C8.48315 4.24716 8.23408 3.65727 8.20786 2.9494C8.23408 2.24154 8.48315 1.65165 8.95506 1.17974C9.42697 0.70783 10.0169 0.458767 10.7247 0.43255C11.4326 0.458767 12.0225 0.70783 12.4944 1.17974C12.9663 1.65165 13.2154 2.24154 13.2416 2.9494ZM15.1292 16.1629C15.8109 16.1629 16.4401 15.9925 17.0169 15.6517C17.5936 15.3108 18.0524 14.852 18.3933 14.2752C18.7341 13.6723 18.9045 13.043 18.9045 12.3876C18.9045 11.7322 18.7341 11.103 18.3933 10.5C18.0524 9.92319 17.5936 9.46439 17.0169 9.12356C16.4401 8.78274 15.8109 8.61233 15.1292 8.61233C14.4476 8.61233 13.8184 8.78274 13.2416 9.12356C12.6648 9.46439 12.206 9.92319 11.8652 10.5C11.5243 11.103 11.3539 11.7322 11.3539 12.3876C11.3539 13.043 11.5243 13.6723 11.8652 14.2752C12.206 14.852 12.6648 15.3108 13.2416 15.6517C13.8184 15.9925 14.4476 16.1629 15.1292 16.1629Z" fill="#275BA8"/>
</svg>
