<svg width="24" height="21" viewBox="0 0 24 21" fill="none" xmlns="http://www.w3.org/2000/svg">
<path d="M2.08989 1.92693L6.10113 7.98311C6.54682 7.5112 7.04495 7.10484 7.59551 6.76401L4.60674 2.32019H7.16292L9.32585 5.93817C9.95506 5.70221 10.5974 5.55802 11.2528 5.50558L11.0169 5.11233L8.57865 1.06176C8.3427 0.668505 7.98877 0.458767 7.51686 0.43255H2.91573C2.31274 0.484985 1.98502 0.8127 1.93259 1.4157C1.93259 1.59922 1.98502 1.76963 2.08989 1.92693ZM12.9831 5.11233L12.7472 5.50558C13.4026 5.55802 14.0449 5.68911 14.6742 5.89884L16.8371 2.32019H19.3933L16.4045 6.76401C16.9551 7.10484 17.4532 7.5112 17.8989 7.98311L21.9101 1.92693C22.015 1.76963 22.0674 1.59922 22.0674 1.4157C22.015 0.8127 21.6873 0.484985 21.0843 0.43255H16.4831C16.0112 0.458767 15.6573 0.668505 15.4214 1.06176L12.9831 5.11233ZM12 8.61233C12.9176 8.61233 13.7566 8.83517 14.5169 9.28087C15.2772 9.72656 15.8933 10.3427 16.3652 11.1292C16.8109 11.9157 17.0337 12.7546 17.0337 13.646C17.0337 14.5374 16.8109 15.3764 16.3652 16.1629C15.8933 16.9494 15.2772 17.5655 14.5169 18.0112C13.7566 18.4569 12.9176 18.6797 12 18.6797C11.0824 18.6797 10.2434 18.4569 9.48315 18.0112C8.72285 17.5655 8.10674 16.9494 7.63483 16.1629C7.18914 15.3764 6.96629 14.5374 6.96629 13.646C6.96629 12.7546 7.18914 11.9157 7.63483 11.1292C8.10674 10.3427 8.72285 9.72656 9.48315 9.28087C10.2434 8.83517 11.0824 8.61233 12 8.61233ZM12 20.5674C13.2584 20.5674 14.412 20.2528 15.4607 19.6236C16.5094 19.0206 17.3483 18.1816 17.9775 17.1067C18.6067 16.0056 18.9214 14.852 18.9214 13.646C18.9214 12.44 18.6067 11.2865 17.9775 10.1854C17.3483 9.11045 16.5094 8.2715 15.4607 7.66851C14.412 7.03929 13.2584 6.72469 12 6.72469C10.7416 6.72469 9.58802 7.03929 8.53933 7.66851C7.49064 8.2715 6.65169 9.11045 6.02247 10.1854C5.39326 11.2865 5.07865 12.44 5.07865 13.646C5.07865 14.852 5.39326 16.0056 6.02247 17.1067C6.65169 18.1816 7.49064 19.0206 8.53933 19.6236C9.58802 20.2528 10.7416 20.5674 12 20.5674ZM12.2753 10.4606C12.0918 10.2247 11.9082 10.2247 11.7247 10.4606L10.9775 11.955C10.9251 12.0599 10.8464 12.1254 10.7416 12.1517L9.05056 12.3876C8.76218 12.4925 8.69663 12.676 8.85394 12.9382L10.073 14.1179C10.1517 14.1966 10.191 14.2884 10.191 14.3932L9.87641 16.0842C9.90262 16.3726 10.0599 16.4775 10.3483 16.3988L11.8427 15.6123C11.9476 15.5599 12.0524 15.5599 12.1573 15.6123L13.6517 16.3988C13.9401 16.4775 14.0974 16.3726 14.1236 16.0842L13.809 14.3932C13.809 14.2884 13.8483 14.1966 13.927 14.1179L15.1461 12.9382C15.3034 12.676 15.2378 12.4925 14.9494 12.3876L13.2584 12.1517C13.1536 12.1254 13.0749 12.0599 13.0225 11.955L12.2753 10.4606Z" fill="#275BA8"/>
</svg>
