<svg width="20" height="16" viewBox="0 0 20 16" fill="none" xmlns="http://www.w3.org/2000/svg">
<path d="M2.17977 1.58794C2.27964 1.40817 2.43944 1.31828 2.65917 1.31828L9.99999 2.24712L17.3408 1.31828C17.5605 1.31828 17.7203 1.40817 17.8202 1.58794L19.0786 4.1048C19.1985 4.38445 19.1985 4.65411 19.0786 4.91378C18.9788 5.17346 18.779 5.35324 18.4794 5.45311L13.5955 6.83139C13.1361 6.93126 12.7665 6.79144 12.4869 6.41191L9.99999 2.24712L7.5131 6.41191C7.23345 6.79144 6.86391 6.93126 6.40448 6.83139L1.52059 5.45311C1.22096 5.35324 1.02121 5.17346 0.921339 4.91378C0.801489 4.65411 0.801489 4.38445 0.921339 4.1048L2.17977 1.58794ZM10.03 4.16472L11.6779 6.89131C11.9176 7.27084 12.2272 7.5405 12.6067 7.7003C13.0062 7.8601 13.4257 7.88008 13.8652 7.76023L17.6704 6.68157V11.6853C17.6704 12.0049 17.5705 12.2946 17.3708 12.5542C17.171 12.8139 16.9114 12.9837 16.5918 13.0636L10.4494 14.5917C10.1498 14.6716 9.84019 14.6716 9.52059 14.5917L3.40823 13.0636C3.08863 12.9837 2.82895 12.8139 2.6292 12.5542C2.42945 12.2946 2.32958 12.0049 2.32958 11.6853V6.68157L6.16478 7.76023C6.58426 7.88008 6.99375 7.8601 7.39325 7.7003C7.77277 7.5405 8.08239 7.27084 8.32209 6.89131L9.97003 4.16472H10.03Z" fill="black"/>
</svg>
