<svg width="27" height="31" viewBox="0 0 27 31" fill="none" xmlns="http://www.w3.org/2000/svg">
<path d="M26.1288 17.8223C26.0901 19.7961 25.4128 21.4409 24.0969 22.7567C22.7811 24.0726 21.1362 24.7499 19.1625 24.7886H18.2336C17.3822 24.7112 16.9178 24.2468 16.8404 23.3953C16.9178 22.5439 17.3822 22.0795 18.2336 22.0021H19.1625C20.3622 21.9634 21.3491 21.557 22.1231 20.783C22.8972 20.0089 23.3035 19.022 23.3422 17.8223V17.2418C23.0326 17.3192 22.723 17.3579 22.4134 17.3579H18.698C17.6531 17.3192 16.7823 16.9515 16.0857 16.2549C15.3891 15.5582 15.0214 14.6875 14.9827 13.6425V9.92715C15.0214 8.88221 15.3891 8.01142 16.0857 7.31479C16.7823 6.61816 17.6531 6.2505 18.698 6.2118H22.4134C23.4583 6.2505 24.3291 6.61816 25.0258 7.31479C25.7224 8.01142 26.0901 8.88221 26.1288 9.92715V11.7848V13.6425V17.8223ZM23.3422 13.6425V11.7848V9.92715C23.3035 9.34663 22.9939 9.03701 22.4134 8.99831H18.698C18.1175 9.03701 17.8079 9.34663 17.7692 9.92715V13.6425C17.8079 14.223 18.1175 14.5326 18.698 14.5713H22.4134C22.9939 14.5326 23.3035 14.223 23.3422 13.6425ZM3.83662 14.5713H7.55197C8.1325 14.5326 8.44211 14.223 8.48081 13.6425V11.7848V9.92715C8.44211 9.34663 8.1325 9.03701 7.55197 8.99831H3.83662C3.25609 9.03701 2.94648 9.34663 2.90778 9.92715V13.6425C2.94648 14.223 3.25609 14.5326 3.83662 14.5713ZM11.2673 11.7848V13.6425V17.8223C11.2286 19.7961 10.5513 21.4409 9.23549 22.7567C7.91964 24.0726 6.27482 24.7499 4.30104 24.7886H3.3722C2.52076 24.7112 2.05634 24.2468 1.97894 23.3953C2.05634 22.5439 2.52076 22.0795 3.3722 22.0021H4.30104C5.50079 21.9634 6.48768 21.557 7.26171 20.783C8.03574 20.0089 8.44211 19.022 8.48081 17.8223V17.2418C8.1712 17.3192 7.86159 17.3579 7.55197 17.3579H3.83662C2.79167 17.3192 1.92089 16.9515 1.22426 16.2549C0.527629 15.5582 0.159963 14.6875 0.121262 13.6425V9.92715C0.159963 8.88221 0.527629 8.01142 1.22426 7.31479C1.92089 6.61816 2.79167 6.2505 3.83662 6.2118H7.55197C8.59692 6.2505 9.4677 6.61816 10.1643 7.31479C10.861 8.01142 11.2286 8.88221 11.2673 9.92715V11.7848Z" fill="white"/>
</svg>
